<svg width="104" height="104" viewBox="0 0 104 104" fill="none" xmlns="http://www.w3.org/2000/svg">
<path d="M17.7468 13.4656L48.8842 5.21192C60.2312 2.20415 68.4508 7.11087 71.6111 18.7789L80.2753 50.767C83.4356 62.4351 78.7973 70.7501 67.4503 73.7578L36.3128 82.0116C24.9659 85.0193 16.776 80.1048 13.6156 68.4367L4.95142 36.4486C1.79106 24.7806 6.3998 16.4734 17.7468 13.4656Z" fill="#3C69C0"/>
<g filter="url(#filter0_b_224_3274)">
<path d="M87.5896 25.161L52.4994 17.0131C39.6743 14.0351 30.7841 19.5021 27.8199 32.1895L19.7009 66.9404C16.754 79.5534 22.2888 88.4482 35.1139 91.4262L70.2418 99.5829C83.0293 102.552 91.9744 97.0195 94.9212 84.4065L103.04 49.6556C106.004 36.9682 100.377 28.1303 87.5896 25.161" fill="#4779DA"/>
</g>
<g clip-path="url(#clip0_224_3274)">
<path fill-rule="evenodd" clip-rule="evenodd" d="M69.7736 70.9697L68.8747 70.759C68.3785 70.6427 68.0702 70.1456 68.1865 69.6495C68.3028 69.1533 68.7999 68.845 69.2961 68.9613L70.195 69.172L71.9927 69.5934L72.8915 69.8041C73.3877 69.9204 73.696 70.4175 73.5797 70.9136C73.4634 71.4098 72.9663 71.7181 72.4701 71.6018L71.5713 71.3911L69.7736 70.9697ZM69.6189 75.6747C67.6702 75.2179 66.6025 72.3619 67.2877 69.4388C67.9729 66.5157 70.1986 64.4316 72.1473 64.8884C74.096 65.3452 75.1637 68.2012 74.4786 71.1243C73.7934 74.0474 71.5677 76.1315 69.6189 75.6747ZM68.7762 79.2701C68.2809 79.1541 67.9719 78.6559 68.088 78.1606C68.2041 77.6653 68.7023 77.3563 69.1976 77.4724C69.6928 77.5885 70.0018 78.0867 69.8857 78.582C69.7696 79.0773 69.2714 79.3862 68.7762 79.2701ZM81.1359 66.9953L81.3466 66.0965C81.4629 65.6003 81.1546 65.1032 80.6584 64.9869C80.1623 64.8706 79.6652 65.1789 79.5489 65.6751L79.3382 66.5739C79.1054 67.5672 78.1123 68.1831 77.1191 67.9503L76.3919 67.7798C75.9622 65.4137 74.5642 63.5584 72.5687 63.0907C70.5732 62.6229 68.4963 63.6637 67.0599 65.5924L66.3327 65.4219C65.3395 65.1891 64.7236 64.1961 64.9564 63.2028L65.1671 62.304C65.2834 61.8078 64.9751 61.3107 64.4789 61.1944C63.9828 61.0781 63.4857 61.3864 63.3694 61.8826L63.1587 62.7814C62.6933 64.767 63.9258 66.7542 65.9113 67.2196L66.0884 67.2612C65.8421 67.8103 65.6358 68.3954 65.49 69.0174L62.7934 68.3853C62.2972 68.269 61.8001 68.5773 61.6838 69.0734C61.5675 69.5696 61.8758 70.0667 62.372 70.183L65.2456 70.8566C65.2192 71.5237 65.263 72.1702 65.3744 72.7833L64.6472 72.6128C62.6616 72.1474 60.6744 73.3799 60.209 75.3655L59.9983 76.2643C59.882 76.7605 60.1902 77.2576 60.6864 77.3739C61.1826 77.4902 61.6797 77.1819 61.796 76.6857L62.0067 75.7869C62.2395 74.7936 63.2325 74.1777 64.2258 74.4105L66.0235 74.8319L66.0338 74.788C66.3288 75.374 66.6977 75.8918 67.1348 76.3166C66.7288 76.6814 66.4243 77.1675 66.2903 77.7392C65.9412 79.2286 66.8654 80.7187 68.3548 81.0679C69.8442 81.417 71.3343 80.4928 71.6834 79.0034C71.8174 78.4317 71.7607 77.8608 71.559 77.3537C72.1394 77.1673 72.7 76.8674 73.2247 76.4736L73.2144 76.5175L75.0121 76.9389C76.0053 77.1717 76.6213 78.1647 76.3884 79.158L76.1777 80.0568C76.0614 80.553 76.3697 81.0501 76.8659 81.1664C77.3621 81.2827 77.8592 80.9744 77.9755 80.4782L78.1862 79.5794C78.6516 77.5938 77.4191 75.6066 75.4335 75.1412L74.7063 74.9707C75.0785 74.471 75.4051 73.9113 75.6778 73.3019L78.5515 73.9755C79.0476 74.0918 79.5447 73.7835 79.661 73.2874C79.7773 72.7912 79.469 72.2941 78.9729 72.1778L76.2763 71.5457C76.4221 70.9237 76.4972 70.3079 76.5206 69.7065L76.6977 69.748C78.6833 70.2134 80.6705 68.9809 81.1359 66.9953Z" fill="white" fill-opacity="0.42"/>
<path d="M63.6733 42.882L53.4827 40.4933C52.9055 40.358 52.3278 40.7163 52.1925 41.2935C52.0572 41.8707 52.4155 42.4484 52.9927 42.5837L63.1833 44.9724C63.7605 45.1077 64.3382 44.7494 64.4735 44.1722C64.6087 43.595 64.2505 43.0173 63.6733 42.882Z" fill="white" fill-opacity="0.42"/>
<path d="M61.1479 55.2362L50.9573 52.8475C50.3801 52.7122 49.8024 53.0705 49.6671 53.6477C49.5318 54.2249 49.8901 54.8026 50.4673 54.9379L60.6579 57.3266C61.2351 57.4619 61.8128 57.1036 61.9481 56.5264C62.0834 55.9492 61.7251 55.3715 61.1479 55.2362Z" fill="white" fill-opacity="0.42"/>
<path d="M54.9926 69.1108L46.8259 67.1966C46.3633 67.0881 45.8786 67.4682 45.7433 68.0454C45.608 68.6226 45.8733 69.1785 46.3359 69.2869L54.5026 71.2012C54.9652 71.3097 55.4499 70.9296 55.5852 70.3524C55.7205 69.7752 55.4552 69.2193 54.9926 69.1108Z" fill="white" fill-opacity="0.42"/>
<path d="M60.6215 46.1809L52.4548 44.2667C51.9922 44.1582 51.5075 44.5383 51.3722 45.1155C51.2369 45.6927 51.5022 46.2486 51.9648 46.357L60.1315 48.2713C60.5941 48.3797 61.0788 47.9997 61.2141 47.4225C61.3494 46.8453 61.0841 46.2894 60.6215 46.1809Z" fill="white" fill-opacity="0.42"/>
<path d="M58.0629 58.9793L49.8962 57.065C49.4336 56.9566 48.9489 57.3366 48.8136 57.9138C48.6783 58.491 48.9436 59.0469 49.4062 59.1554L57.5729 61.0697C58.0355 61.1781 58.5202 60.798 58.6555 60.2208C58.7908 59.6436 58.5255 59.0877 58.0629 58.9793Z" fill="white" fill-opacity="0.42"/>
<path d="M54.0508 76.2564L44.0034 73.9012C41.3149 73.271 39.6463 70.5807 40.2765 67.8921L47.1441 38.5938C47.7743 35.9052 50.4647 34.2366 53.1532 34.8668L67.359 38.1967C68.5826 38.4835 69.6534 39.2206 70.358 40.2613L73.9589 45.5791C74.7414 46.7347 75.0053 48.1648 74.6868 49.5236L72.5049 58.832" stroke="white" stroke-opacity="0.42" stroke-width="2.4" stroke-linecap="round" stroke-linejoin="round"/>
</g>
<defs>
<filter id="filter0_b_224_3274" x="-5.07422" y="-7.78134" width="132.889" height="132.15" filterUnits="userSpaceOnUse" color-interpolation-filters="sRGB">
<feFlood flood-opacity="0" result="BackgroundImageFix"/>
<feGaussianBlur in="BackgroundImageFix" stdDeviation="12"/>
<feComposite in2="SourceAlpha" operator="in" result="effect1_backgroundBlur_224_3274"/>
<feBlend mode="normal" in="SourceGraphic" in2="effect1_backgroundBlur_224_3274" result="shape"/>
</filter>
<clipPath id="clip0_224_3274">
<rect width="43.5142" height="43.5142" fill="white" transform="translate(47.4297 32) rotate(13.1921)"/>
</clipPath>
</defs>
</svg>
