<svg width="104" height="102" viewBox="0 0 104 102" fill="none" xmlns="http://www.w3.org/2000/svg">
<path d="M17.7468 13.4656L48.8842 5.21192C60.2312 2.20415 68.4508 7.11087 71.6111 18.7789L80.2753 50.767C83.4356 62.4351 78.7973 70.7501 67.4503 73.7578L36.3128 82.0116C24.9659 85.0193 16.776 80.1048 13.6156 68.4367L4.95142 36.4486C1.79106 24.7806 6.3998 16.4734 17.7468 13.4656Z" fill="#B63B3B"/>
<g filter="url(#filter0_b_224_3201)">
<path d="M87.5896 25.161L52.4994 17.0131C39.6743 14.0351 30.7841 19.5021 27.8199 32.1895L19.7009 66.9404C16.754 79.5534 22.2888 88.4482 35.1139 91.4262L70.2418 99.5829C83.0293 102.552 91.9744 97.0195 94.9212 84.4065L103.04 49.6556C106.004 36.9682 100.377 28.1303 87.5896 25.161" fill="#D24848"/>
</g>
<g clip-path="url(#clip0_224_3201)">
<path d="M80.997 49.6322C81.1907 49.9446 81.2522 50.3212 81.1682 50.679V50.679C80.9932 51.4242 80.2473 51.8864 79.5021 51.7114L71.4094 49.8111C70.3341 49.5586 69.6671 48.4822 69.9196 47.4069L71.8199 39.3142C71.9949 38.569 72.7408 38.1068 73.4859 38.2818V38.2818C73.8438 38.3658 74.1536 38.5886 74.3472 38.901L80.997 49.6322Z" stroke="white" stroke-opacity="0.42" stroke-width="2" stroke-miterlimit="10"/>
<path d="M78.8698 60.4681C78.7171 61.1185 78.2496 61.6498 77.6239 61.884L73.2981 63.5032C72.5419 63.7862 71.6897 63.5869 71.1376 62.9977L68.1465 59.806C67.5952 59.2177 66.7446 59.018 65.9891 59.2994L61.8922 60.8254C61.1345 61.1076 60.2813 60.9059 59.7303 60.3141L56.7775 57.1427C56.2265 56.5509 55.3733 56.3491 54.6156 56.6314L50.5209 58.1566C49.7643 58.4384 48.9124 58.2376 48.3613 57.6476L45.2083 54.2723C44.7522 53.784 44.57 53.1002 44.7228 52.4498L48.9217 34.568C49.1742 33.4927 50.2506 32.8257 51.3259 33.0782L73.2386 38.2236C73.755 38.3449 74.202 38.6663 74.4814 39.1172L80.8633 49.416C81.1427 49.8668 81.2316 50.4102 81.1103 50.9266L78.8698 60.4681Z" stroke="#E59595" stroke-width="2" stroke-miterlimit="10"/>
<path d="M75.9872 72.7434C76.3526 71.1876 74.8358 69.8529 73.3391 70.4131L71.5151 71.0959C70.7589 71.3789 69.9067 71.1795 69.3546 70.5904L66.3635 67.3987C65.8122 66.8104 64.9616 66.6106 64.2061 66.8921L60.1092 68.4181C59.3515 68.7003 58.4983 68.4985 57.9473 67.9068L54.9945 64.7354C54.4435 64.1436 53.5903 63.9418 52.8326 64.224L48.7379 65.7492C47.9813 66.0311 47.1294 65.8303 46.5783 65.2403L45.2488 63.8171C44.1579 62.6492 42.2055 63.1693 41.8402 64.7251L40.0348 72.4137C39.7823 73.489 40.4493 74.5654 41.5246 74.8179L71.7776 81.9218C72.8529 82.1743 73.9293 81.5073 74.1818 80.432L75.9872 72.7434Z" stroke="#E59595" stroke-width="2" stroke-miterlimit="10"/>
<path d="M63.4011 47.803L60.1641 47.0428" stroke="#E59595" stroke-width="1.7" stroke-miterlimit="10"/>
<path d="M53.6963 45.5241L50.4648 44.7653" stroke="#E59595" stroke-width="1.7" stroke-miterlimit="10"/>
<path d="M60.5454 45.4243L59.7853 48.6614C59.7421 48.8499 59.6829 49.0344 59.6084 49.2128C59.3045 49.9363 58.7542 50.5287 58.0551 50.8849C57.3559 51.2412 56.5532 51.3382 55.7893 51.1588C55.0254 50.9795 54.3497 50.5353 53.8822 49.9051C53.4147 49.2749 53.1856 48.4994 53.2355 47.7163C53.243 47.5228 53.2703 47.3305 53.3169 47.1425L54.077 43.9054C54.1196 43.7165 54.1808 43.5323 54.2595 43.3553C54.4997 42.7972 54.8883 42.3155 55.383 41.9626C55.8777 41.6098 56.4597 41.3993 57.0656 41.3539C57.6716 41.3086 58.2784 41.4301 58.8201 41.7054C59.3618 41.9807 59.8178 42.3992 60.1384 42.9154C60.5051 43.4999 60.6763 44.186 60.6272 44.8743C60.6144 45.0595 60.5871 45.2434 60.5454 45.4243Z" stroke="#E59595" stroke-width="1.7" stroke-miterlimit="10"/>
<path d="M52.2695 39.5024L52.1626 39.9577C51.992 40.68 52.1115 41.4404 52.4955 42.0756C52.6917 42.3977 52.95 42.6775 53.2553 42.8988C53.5607 43.1201 53.907 43.2786 54.2741 43.3649L60.6133 44.8535C61.3415 45.0286 62.1095 44.9084 62.7494 44.519C63.3884 44.1235 63.8442 43.4904 64.0166 42.7589L64.1274 42.2869" stroke="#E59595" stroke-width="1.7" stroke-miterlimit="10"/>
<path d="M59.6152 49.1851C60.3269 49.3541 60.9431 49.7971 61.33 50.4179L61.3644 50.4734C61.5556 50.7813 61.6841 51.1239 61.7425 51.4816C61.801 51.8392 61.7883 52.2049 61.7051 52.5577L61.5864 53.0634" stroke="#E59595" stroke-width="1.7" stroke-miterlimit="10"/>
<path d="M49.7399 50.2814L49.8547 49.7924C50.0193 49.0909 50.4518 48.4817 51.0598 48.0949L51.1361 48.0476C51.4457 47.8506 51.7914 47.7174 52.1531 47.6558C52.5148 47.5941 52.8851 47.6051 53.2425 47.6883" stroke="#E59595" stroke-width="1.7" stroke-miterlimit="10"/>
<path d="M57.4414 44.1262L55.7958 51.1342" stroke="#E59595" stroke-width="1.7" stroke-miterlimit="10"/>
<path d="M54.2031 43.3658L60.6716 44.8847" stroke="#E59595" stroke-width="1.7" stroke-miterlimit="10"/>
<path d="M59.1484 39.4095C59.5777 39.5103 59.9493 39.7775 60.1816 40.1523C60.4138 40.5271 60.4877 40.9789 60.3869 41.4081L60.0662 42.7737" stroke="#E59595" stroke-width="1.7" stroke-miterlimit="10"/>
<path d="M55.7211 41.7538L56.0418 40.3882C56.1419 39.9618 56.4062 39.5922 56.7772 39.3595C57.1483 39.1269 57.5962 39.0501 58.0235 39.1458" stroke="#E59595" stroke-width="1.7" stroke-miterlimit="10"/>
</g>
<defs>
<filter id="filter0_b_224_3201" x="-5.07422" y="-7.78137" width="132.889" height="132.15" filterUnits="userSpaceOnUse" color-interpolation-filters="sRGB">
<feFlood flood-opacity="0" result="BackgroundImageFix"/>
<feGaussianBlur in="BackgroundImageFix" stdDeviation="12"/>
<feComposite in2="SourceAlpha" operator="in" result="effect1_backgroundBlur_224_3201"/>
<feBlend mode="normal" in="SourceGraphic" in2="effect1_backgroundBlur_224_3201" result="shape"/>
</filter>
<clipPath id="clip0_224_3201">
<rect width="49" height="49" fill="white" transform="translate(43.3008 28.0481) rotate(13.2146)"/>
</clipPath>
</defs>
</svg>
