<svg width="104" height="104" viewBox="0 0 104 104" fill="none" xmlns="http://www.w3.org/2000/svg">
<path d="M17.7468 12.9656L48.8842 4.71192C60.2312 1.70415 68.4508 6.61087 71.6111 18.2789L80.2753 50.267C83.4356 61.9351 78.7973 70.2501 67.4503 73.2578L36.3128 81.5116C24.9659 84.5193 16.776 79.6048 13.6156 67.9367L4.95142 35.9486C1.79106 24.2806 6.3998 15.9734 17.7468 12.9656Z" fill="#B63B3B"/>
<g filter="url(#filter0_b_224_3170)">
<path d="M87.5857 24.662L52.4954 16.5141C39.6704 13.5361 30.7802 19.003 27.816 31.6905L19.697 66.4414C16.7501 79.0544 22.2849 87.9492 35.11 90.9272L70.2379 99.0838C83.0253 102.053 91.9705 96.5205 94.9173 83.9075L103.036 49.1566C106.001 36.4691 100.373 27.6313 87.5857 24.662" fill="#D24848"/>
</g>
<g clip-path="url(#clip0_224_3170)">
<path opacity="0.42" d="M43.2754 59.3997C43.2754 59.3997 42.7886 62.6328 42.6137 63.6472C42.3785 65.0076 42.5445 66.628 43.165 67.8718C44.0393 69.6337 45.3552 70.4921 47.2745 70.9473C49.5314 71.4819 65.9493 75.3426 68.2079 75.8698C70.1289 76.3177 71.6895 76.1357 73.2574 74.9481C74.3672 74.1111 75.2379 72.7345 75.6355 71.4123C75.9291 70.4258 76.9342 67.3146 76.9342 67.3146" stroke="white" stroke-width="2" stroke-linecap="round" stroke-linejoin="round"/>
<path d="M58.02 43.321L58.1793 42.6438C58.7029 40.4171 60.9303 39.0378 63.1571 39.5615L67.8698 40.6697C70.0947 41.1928 71.4758 43.4206 70.9522 45.6474L70.7948 46.325" stroke="#E59595" stroke-width="2" stroke-linecap="round" stroke-linejoin="round"/>
<path d="M59.5364 65.5369L60.0918 63.175" stroke="white" stroke-opacity="0.42" stroke-width="2" stroke-linecap="round" stroke-linejoin="round"/>
<path fill-rule="evenodd" clip-rule="evenodd" d="M46.2188 46.4392L44.7307 52.7673C47.6885 55.8994 51.5026 58.5028 55.9551 60.2259C56.9789 58.346 59.1377 57.2992 61.3408 57.8173C63.5091 58.3272 65.0117 60.2349 65.0496 62.3838C69.8217 62.8298 74.4127 62.2029 78.479 60.7032L79.967 54.3751C80.6941 51.2832 78.7917 48.2086 75.6998 47.4815L53.1292 42.174C50.0373 41.447 46.9458 43.3473 46.2188 46.4392Z" stroke="#E59595" stroke-width="2" stroke-linecap="round" stroke-linejoin="round"/>
</g>
<defs>
<filter id="filter0_b_224_3170" x="-5.07812" y="-8.2804" width="132.889" height="132.15" filterUnits="userSpaceOnUse" color-interpolation-filters="sRGB">
<feFlood flood-opacity="0" result="BackgroundImageFix"/>
<feGaussianBlur in="BackgroundImageFix" stdDeviation="12"/>
<feComposite in2="SourceAlpha" operator="in" result="effect1_backgroundBlur_224_3170"/>
<feBlend mode="normal" in="SourceGraphic" in2="effect1_backgroundBlur_224_3170" result="shape"/>
</filter>
<clipPath id="clip0_224_3170">
<rect width="45" height="45" fill="white" transform="translate(44.8008 29.947) rotate(13.2327)"/>
</clipPath>
</defs>
</svg>
