<svg width="104" height="102" viewBox="0 0 104 102" fill="none" xmlns="http://www.w3.org/2000/svg">
<path d="M17.7468 13.4656L48.8842 5.21192C60.2312 2.20415 68.4508 7.11087 71.6111 18.7789L80.2753 50.767C83.4356 62.4351 78.7973 70.7501 67.4503 73.7578L36.3128 82.0116C24.9659 85.0193 16.776 80.1048 13.6156 68.4367L4.95142 36.4486C1.79106 24.7806 6.3998 16.4734 17.7468 13.4656Z" fill="#9540C9"/>
<g filter="url(#filter0_b_224_3305)">
<path d="M87.5896 25.161L52.4994 17.0131C39.6743 14.0351 30.7841 19.5021 27.8199 32.1895L19.7009 66.9404C16.754 79.5534 22.2888 88.4482 35.1139 91.4262L70.2418 99.5829C83.0293 102.552 91.9744 97.0195 94.9212 84.4065L103.04 49.6556C106.004 36.9682 100.377 28.1303 87.5896 25.161" fill="#A647E0"/>
</g>
<g clip-path="url(#clip0_224_3305)">
<path d="M52.9129 64.2666C52.9491 64.6116 52.8474 64.9568 52.6301 65.2264L48.3826 70.5007C48.1612 70.7566 47.8495 70.9161 47.5131 70.9458C47.1766 70.9754 46.8418 70.8728 46.579 70.6595C46.3163 70.4463 46.1462 70.1391 46.1045 69.8026C46.0629 69.4662 46.153 69.1267 46.3558 68.8558L49.7847 64.598L45.5399 61.1529C45.3999 61.0473 45.2826 60.9145 45.1948 60.7624C45.1071 60.6103 45.0507 60.442 45.0291 60.2676C45.0076 60.0933 45.0212 59.9163 45.0692 59.7474C45.1173 59.5785 45.1987 59.421 45.3087 59.2844C45.4187 59.1478 45.555 59.0349 45.7095 58.9524C45.8639 58.8698 46.0334 58.8194 46.2078 58.804C46.3822 58.7887 46.5578 58.8087 46.7244 58.863C46.8909 58.9173 47.0449 59.0046 47.1771 59.1199L52.4353 63.3874C52.7047 63.6045 52.8763 63.9214 52.9129 64.2666ZM56.737 67.3702C56.3932 67.4066 56.0781 67.5786 55.8608 67.8484C55.6436 68.1182 55.5421 68.4636 55.5786 68.8087C55.6152 69.1538 55.7868 69.4702 56.0557 69.6885C56.3247 69.9068 56.6689 70.0089 57.0127 69.9725L65.6541 69.0572C65.9979 69.0207 66.3131 68.8487 66.5303 68.579C66.7476 68.3092 66.8491 67.9638 66.8125 67.6187C66.776 67.2736 66.6044 66.9571 66.3354 66.7389C66.0665 66.5206 65.7223 66.4184 65.3785 66.4548L56.737 67.3702Z" fill="white" fill-opacity="0.42"/>
<rect x="37.3123" y="43.4557" width="47.6268" height="34.8285" rx="3.75" transform="rotate(-6.05 37.3123 43.4557)" stroke="white" stroke-opacity="0.42" stroke-width="2.5"/>
<g clip-path="url(#clip1_224_3305)">
<path fill-rule="evenodd" clip-rule="evenodd" d="M65.44 53.2899L64.5088 53.3885C63.9948 53.443 63.5335 53.07 63.479 52.556C63.4246 52.042 63.7975 51.5807 64.3115 51.5262L65.2427 51.4276L67.105 51.2303L68.0361 51.1317C68.5501 51.0773 69.0115 51.4502 69.0659 51.9642C69.1204 52.4782 68.7474 52.9396 68.2334 52.994L67.3023 53.0926L65.44 53.2899ZM66.8643 57.847C64.8455 58.0609 62.8686 55.6828 62.5479 52.6547C62.2271 49.6265 63.6619 46.887 65.6807 46.6732C67.6994 46.4594 69.6763 48.8375 69.9971 51.8656C70.3178 54.8937 68.883 57.6332 66.8643 57.847ZM67.2588 61.5716C66.7457 61.626 66.2834 61.2522 66.229 60.7391C66.1747 60.2261 66.5485 59.7637 67.0615 59.7093C67.5746 59.655 68.037 60.0288 68.0913 60.5419C68.1457 61.0549 67.7719 61.5173 67.2588 61.5716ZM74.9922 45.6869L74.8936 44.7557C74.8391 44.2417 74.3778 43.8688 73.8638 43.9232C73.3498 43.9776 72.9768 44.439 73.0312 44.953L73.1299 45.8841C73.2389 46.9131 72.4938 47.8347 71.4648 47.9437L70.7115 48.0235C69.5094 45.9014 67.5506 44.5919 65.4834 44.8109C63.4162 45.0299 61.7752 46.7206 61.0443 49.0475L60.291 49.1273C59.2621 49.2363 58.3404 48.4912 58.2314 47.4623L58.1328 46.5311C58.0784 46.0171 57.617 45.6442 57.103 45.6986C56.589 45.7531 56.2161 46.2144 56.2705 46.7284L56.3691 47.6595C56.587 49.7165 58.4314 51.2075 60.4883 50.9896L60.6717 50.9702C60.6194 51.5784 60.6173 52.2076 60.6856 52.8519L57.8921 53.1478C57.3781 53.2023 57.0051 53.6636 57.0596 54.1776C57.114 54.6916 57.5754 55.0646 58.0894 55.0101L61.0663 54.6948C61.2639 55.3424 61.5219 55.9469 61.8334 56.4967L61.0801 56.5765C59.0232 56.7944 57.5321 58.6388 57.75 60.6957L57.8487 61.6268C57.9031 62.1408 58.3644 62.5138 58.8784 62.4593C59.3924 62.4049 59.7654 61.9436 59.711 61.4296L59.6123 60.4984C59.5033 59.4695 60.2484 58.5478 61.2774 58.4388L63.1397 58.2416L63.1348 58.1961C63.6132 58.6586 64.1395 59.0311 64.7 59.2919C64.4332 59.7769 64.304 60.3442 64.3667 60.9364C64.5302 62.4793 65.9132 63.5974 67.4561 63.4339C68.999 63.2705 70.1171 61.8875 69.9536 60.3446C69.8909 59.7524 69.6457 59.2247 69.2832 58.8064C69.7767 58.434 70.2132 57.9595 70.5841 57.407L70.5889 57.4525L72.4512 57.2552C73.4801 57.1462 74.4018 57.8913 74.5108 58.9203L74.6094 59.8514C74.6638 60.3654 75.1252 60.7384 75.6392 60.6839C76.1532 60.6295 76.5261 60.1681 76.4717 59.6542L76.3731 58.723C76.1552 56.6661 74.3108 55.175 72.2539 55.3929L71.5006 55.4727C71.69 54.8698 71.8157 54.2247 71.8732 53.5501L74.8501 53.2347C75.3641 53.1803 75.7371 52.7189 75.6826 52.2049C75.6282 51.6909 75.1668 51.318 74.6528 51.3724L71.8594 51.6683C71.7911 51.024 71.6573 50.4092 71.4787 49.8254L71.6621 49.806C73.719 49.5881 75.2101 47.7438 74.9922 45.6869Z" fill="white" fill-opacity="0.42"/>
</g>
</g>
<defs>
<filter id="filter0_b_224_3305" x="-5.07422" y="-7.78137" width="132.889" height="132.15" filterUnits="userSpaceOnUse" color-interpolation-filters="sRGB">
<feFlood flood-opacity="0" result="BackgroundImageFix"/>
<feGaussianBlur in="BackgroundImageFix" stdDeviation="12"/>
<feComposite in2="SourceAlpha" operator="in" result="effect1_backgroundBlur_224_3305"/>
<feBlend mode="normal" in="SourceGraphic" in2="effect1_backgroundBlur_224_3305" result="shape"/>
</filter>
<clipPath id="clip0_224_3305">
<rect width="51.1398" height="51.1398" fill="white" transform="translate(34.7891 35.387) rotate(-6.0466)"/>
</clipPath>
<clipPath id="clip1_224_3305">
<rect width="18.7272" height="18.7272" fill="white" transform="translate(56.1719 45.7972) rotate(-6.0466)"/>
</clipPath>
</defs>
</svg>
