<svg width="104" height="101" viewBox="0 0 104 101" fill="none" xmlns="http://www.w3.org/2000/svg">
<path d="M17.7468 12.9656L48.8842 4.71192C60.2312 1.70415 68.4508 6.61087 71.6111 18.2789L80.2753 50.267C83.4356 61.9351 78.7973 70.2501 67.4503 73.2578L36.3128 81.5116C24.9659 84.5193 16.776 79.6048 13.6156 67.9367L4.95142 35.9486C1.79106 24.2806 6.3998 15.9734 17.7468 12.9656Z" fill="#9540C9"/>
<g filter="url(#filter0_b_224_3183)">
<path d="M87.5857 24.662L52.4954 16.5141C39.6704 13.5361 30.7802 19.003 27.816 31.6905L19.697 66.4414C16.7501 79.0544 22.2849 87.9492 35.11 90.9272L70.2379 99.0838C83.0253 102.053 91.9705 96.5205 94.9173 83.9075L103.036 49.1566C106.001 36.4691 100.373 27.6313 87.5857 24.662" fill="#A647E0"/>
</g>
<g clip-path="url(#clip0_224_3183)">
<path d="M83.2105 49.1146L76.4089 37.838C76.0448 37.2357 75.4585 36.8152 74.7708 36.6458L51.7074 30.9618C49.5702 30.4351 47.4158 31.7375 46.8891 33.8747L37.5777 71.6572C37.051 73.7944 38.3534 75.9487 40.4906 76.4754L71.3038 84.0693C73.4411 84.596 75.5954 83.2936 76.1221 81.1564L83.5282 51.1051C83.6976 50.4175 83.5932 49.7215 83.2105 49.1146ZM74.231 80.6706C73.9654 81.7485 72.8535 82.4207 71.7756 82.1551L40.9624 74.5612C39.8845 74.2956 39.2123 73.1836 39.4779 72.1057L48.7848 34.3419C49.0504 33.264 50.1623 32.5918 51.2402 32.8574L74.3222 38.546C74.5081 38.5918 74.657 38.7073 74.7551 38.8695L81.5612 50.1275C81.6592 50.2897 81.6924 50.4753 81.6466 50.6611L74.2496 80.6752L74.231 80.6706Z" fill="white" fill-opacity="0.42"/>
<path d="M79.1771 50.7622L73.0628 49.2553C71.9849 48.9897 71.3127 47.8777 71.5783 46.7998L73.0898 40.6669C73.218 40.1466 72.8959 39.6138 72.3755 39.4855C71.8552 39.3573 71.3224 39.6794 71.1941 40.1998L69.6873 46.3141C69.1606 48.4513 70.463 50.6056 72.6002 51.1323L78.7145 52.6392C79.2349 52.7675 79.7677 52.4453 79.8959 51.925C80.0242 51.4046 79.6975 50.8904 79.1771 50.7622Z" fill="white" fill-opacity="0.42"/>
<path d="M54.2371 44.3887C54.1565 46.1025 55.2981 47.6489 56.9532 48.0568C58.6084 48.4648 60.3378 47.6259 61.0629 46.0709L62.0283 43.9817C62.4324 42.9724 62.3678 41.8475 61.8754 40.8827C61.3829 39.918 60.4993 39.216 59.4593 38.9597L58.9613 38.837C57.9213 38.5807 56.8128 38.7917 55.9284 39.4171C55.044 40.0426 54.4788 41.0122 54.3567 42.1379L54.2371 44.3887ZM56.7985 40.678C57.3248 40.3079 57.9613 40.1837 58.5765 40.3353L59.0746 40.458C59.6898 40.6096 60.2104 41.0191 60.4897 41.5877C60.7837 42.1599 60.8071 42.8217 60.596 43.3632L59.6524 45.4265C59.248 46.3108 58.2608 46.786 57.3087 46.5514C56.3566 46.3167 55.7179 45.4409 55.7561 44.4663L55.8685 42.2449C55.9477 41.6085 56.2905 41.037 56.7985 40.678Z" fill="white" fill-opacity="0.42"/>
<path d="M62.3191 51.7102L59.2498 49.6953L56.0124 51.6475L54.053 48.4146L50.3989 48.7725C49.8417 48.8216 49.3518 49.167 49.119 49.669L46.5546 54.9566L62.8495 58.9724L63.0358 53.0987C63.0594 52.5608 62.786 52.0273 62.3191 51.7102ZM48.7725 53.9184L50.5112 50.3384C50.5185 50.3091 50.5368 50.298 50.5661 50.3053L53.249 50.0342L55.5073 53.7604L59.2385 51.5103L61.4881 52.997C61.4992 53.0153 61.5249 53.0371 61.5213 53.0518L61.3974 57.0298L48.7725 53.9184Z" fill="white" fill-opacity="0.42"/>
<rect x="45.0938" y="61.8721" width="16.3333" height="1.60131" rx="0.800654" transform="rotate(13.8446 45.0938 61.8721)" fill="white" fill-opacity="0.42"/>
<rect x="45.8594" y="58.7627" width="22.4183" height="1.60131" rx="0.800654" transform="rotate(13.8446 45.8594 58.7627)" fill="white" fill-opacity="0.42"/>
<rect x="44.3281" y="64.9817" width="12.4902" height="1.60131" rx="0.800654" transform="rotate(13.8446 44.3281 64.9817)" fill="white" fill-opacity="0.42"/>
<rect x="43.5605" y="68.0913" width="5.76471" height="1.60131" rx="0.800654" transform="rotate(13.8446 43.5605 68.0913)" fill="white" fill-opacity="0.42"/>
</g>
<defs>
<filter id="filter0_b_224_3183" x="-5.07812" y="-8.2804" width="132.889" height="132.15" filterUnits="userSpaceOnUse" color-interpolation-filters="sRGB">
<feFlood flood-opacity="0" result="BackgroundImageFix"/>
<feGaussianBlur in="BackgroundImageFix" stdDeviation="12"/>
<feComposite in2="SourceAlpha" operator="in" result="effect1_backgroundBlur_224_3183"/>
<feBlend mode="normal" in="SourceGraphic" in2="effect1_backgroundBlur_224_3183" result="shape"/>
</filter>
<clipPath id="clip0_224_3183">
<rect width="49" height="49" fill="white" transform="translate(43.582 27.8555) rotate(13.8446)"/>
</clipPath>
</defs>
</svg>
