<svg width="104" height="102" viewBox="0 0 104 102" fill="none" xmlns="http://www.w3.org/2000/svg">
<path d="M17.7468 13.4656L48.8842 5.21192C60.2312 2.20415 68.4508 7.11087 71.6111 18.7789L80.2753 50.767C83.4356 62.4351 78.7973 70.7501 67.4503 73.7578L36.3128 82.0116C24.9659 85.0193 16.776 80.1048 13.6156 68.4367L4.95142 36.4486C1.79106 24.7806 6.3998 16.4734 17.7468 13.4656Z" fill="#9540C9"/>
<g filter="url(#filter0_b_224_3224)">
<path d="M87.5896 25.161L52.4994 17.0131C39.6743 14.0351 30.7841 19.5021 27.8199 32.1895L19.7009 66.9404C16.754 79.5534 22.2888 88.4482 35.1139 91.4262L70.2418 99.5829C83.0293 102.552 91.9744 97.0195 94.9212 84.4065L103.04 49.6556C106.004 36.9682 100.377 28.1303 87.5896 25.161" fill="#A647E0"/>
</g>
<g clip-path="url(#clip0_224_3224)">
<path d="M76.2235 73.6145L76.5194 72.2128C77.7084 66.8803 81.1282 51.618 82.5985 44.9489C83.135 42.5428 81.7088 40.3134 79.3189 39.7805L69.5046 37.5922L65.856 36.7786C61.6658 35.8443 57.3322 34.878 53.0783 33.9295C51.9311 33.6737 50.6716 33.9219 49.6119 34.6243C48.5754 35.2976 47.8596 36.3326 47.5949 37.5194C45.5207 46.9722 44.1722 53.02 42.4489 60.6737L40.6037 68.9488C40.3173 70.2332 40.5271 71.5428 41.204 72.6324C41.8809 73.7219 42.9511 74.4725 44.2098 74.7532L57.6886 77.7586C61.847 78.6858 66.1009 79.6343 70.3107 80.5559C70.7727 80.659 71.2529 80.6807 71.6802 80.6394C73.4836 80.4272 74.9969 79.041 75.4383 77.211C75.6907 76.0044 75.9625 74.785 76.2235 73.6145ZM73.7886 76.809C73.5189 77.9435 72.5895 78.8114 71.4742 78.9381C71.233 78.9697 70.9513 78.9581 70.6486 78.8906C66.4547 77.9725 62.2008 77.024 58.0265 76.0932L44.5477 73.0878C43.7192 72.9031 43.0074 72.4201 42.5802 71.7105C42.1495 71.0172 42.0048 70.1657 42.1933 69.3203L44.0385 61.0453C45.7458 53.3879 47.1103 47.3437 49.1845 37.891C49.3513 37.1431 49.7976 36.4917 50.4625 36.0597C51.147 35.6151 51.9524 35.4533 52.6694 35.6132C56.9233 36.5617 61.257 37.528 65.4472 38.4623L69.0957 39.2758L78.9101 41.4642C80.4396 41.8052 81.2714 43.1 80.9343 44.6119C79.4676 51.2648 76.0441 66.5434 74.8551 71.8758L74.5593 73.2775C74.3374 74.4227 74.0692 75.6257 73.7886 76.809Z" fill="white" fill-opacity="0.42"/>
<path d="M63.7515 47.3884C65.832 47.8523 67.1614 49.8868 66.7985 51.9903L66.7594 52.1877L66.7228 52.356C67.4801 52.8343 67.9865 53.6385 68.0959 54.5357C68.6448 54.6033 69.2028 54.4756 69.6742 54.172C70.1593 53.8596 70.5169 53.3839 70.6859 52.8329L70.7352 52.6466L70.8636 52.0706L70.8957 51.9574C71.0609 51.4809 71.556 51.1929 72.0541 51.304C72.5522 51.415 72.8781 51.8861 72.8252 52.3876L72.8061 52.5038L72.6777 53.0797L72.6205 53.3079C72.3267 54.363 71.6575 55.2764 70.7377 55.8688C69.8693 56.428 68.8404 56.6608 67.8302 56.5348L67.3865 58.5203L70.3002 59.17C70.8366 59.2896 71.1733 59.8268 71.0522 60.3698C70.9311 60.9129 70.3981 61.2561 69.8617 61.1365L66.948 60.4868L66.5062 62.4728C67.4742 62.7879 68.3068 63.4357 68.8553 64.3108C69.4363 65.2379 69.6541 66.3491 69.4719 67.429L69.4267 67.6599L69.2983 68.2359C69.1772 68.7789 68.6442 69.1222 68.1078 69.0026C67.6097 68.8915 67.2838 68.4204 67.3368 67.9189L67.3558 67.8028L67.4842 67.2268C67.6246 66.5972 67.5122 65.9383 67.1717 65.3951C66.8653 64.9062 66.3967 64.547 65.8527 64.379L65.7374 64.3493C64.4259 66.4601 61.9026 67.619 59.3666 67.0535C56.8307 66.4881 55.0387 64.3671 54.7482 61.899L54.6311 61.8769C54.0673 61.7979 53.4905 61.924 53.0054 62.2364C52.5203 62.5488 52.1627 63.0245 51.9937 63.5755L51.9444 63.7618L51.816 64.3378L51.7839 64.451C51.6187 64.9275 51.1236 65.2155 50.6255 65.1045C50.1274 64.9934 49.8015 64.5223 49.8545 64.0208L49.8735 63.9047L50.0019 63.3287L50.0591 63.1005C50.3529 62.0454 51.0221 61.132 51.9419 60.5396C52.8106 59.9802 53.8399 59.7475 54.8504 59.8738L55.2931 57.8881L52.3794 57.2384C51.843 57.1188 51.5063 56.5816 51.6274 56.0386C51.7485 55.4956 52.2815 55.1523 52.8179 55.2719L55.7316 55.9216L56.1744 53.936C55.206 53.621 54.373 52.973 53.8243 52.0976C53.2433 51.1706 53.0255 50.0593 53.2077 48.9794L53.2529 48.7485L53.3813 48.1725C53.5024 47.6295 54.0354 47.2862 54.5718 47.4059C55.0699 47.5169 55.3958 47.988 55.3429 48.4895L55.3238 48.6057L55.1954 49.1816C55.055 49.8112 55.1674 50.4701 55.5079 51.0133C55.8057 51.4884 56.2566 51.841 56.781 52.0147C57.2626 51.247 58.063 50.734 58.9522 50.623L58.9895 50.4552C59.4739 48.283 61.6059 46.91 63.7515 47.3884ZM65.3497 53.9376L59.5223 52.6382C59.0242 52.5272 58.5291 52.8152 58.3639 53.2917L58.3318 53.4049L56.7971 60.2877C56.3128 62.4599 57.6595 64.6086 59.8051 65.087C61.8857 65.5509 63.9535 64.2739 64.5185 62.2155L64.567 62.0202L66.1017 55.1374C66.2142 54.6332 65.9319 54.134 65.4615 53.9695L65.3497 53.9376ZM63.313 49.3549C62.2889 49.1266 61.2711 49.7417 60.9701 50.7427L60.932 50.8883L64.817 51.7545C65.0366 50.7697 64.5033 49.7944 63.602 49.4429L63.4567 49.3926L63.313 49.3549Z" fill="white" fill-opacity="0.42"/>
</g>
<defs>
<filter id="filter0_b_224_3224" x="-5.07422" y="-7.78137" width="132.889" height="132.15" filterUnits="userSpaceOnUse" color-interpolation-filters="sRGB">
<feFlood flood-opacity="0" result="BackgroundImageFix"/>
<feGaussianBlur in="BackgroundImageFix" stdDeviation="12"/>
<feComposite in2="SourceAlpha" operator="in" result="effect1_backgroundBlur_224_3224"/>
<feBlend mode="normal" in="SourceGraphic" in2="effect1_backgroundBlur_224_3224" result="shape"/>
</filter>
<clipPath id="clip0_224_3224">
<rect width="41.7886" height="42.6414" fill="white" transform="translate(45.7793 31.8584) rotate(12.5698)"/>
</clipPath>
</defs>
</svg>
