<svg width="104" height="101" viewBox="0 0 104 101" fill="none" xmlns="http://www.w3.org/2000/svg">
<path d="M17.7468 13.4656L48.8842 5.21192C60.2312 2.20415 68.4508 7.11087 71.6111 18.7789L80.2753 50.767C83.4356 62.4351 78.7973 70.7501 67.4503 73.7578L36.3128 82.0116C24.9659 85.0193 16.776 80.1048 13.6156 68.4367L4.95142 36.4486C1.79106 24.7806 6.3998 16.4734 17.7468 13.4656Z" fill="#3159C0"/>
<g filter="url(#filter0_b_224_3345)">
<path d="M87.5896 25.161L52.4994 17.0131C39.6743 14.0351 30.7841 19.5021 27.8199 32.1895L19.7009 66.9404C16.754 79.5534 22.2888 88.4482 35.1139 91.4262L70.2418 99.5829C83.0293 102.552 91.9744 97.0195 94.9212 84.4065L103.04 49.6556C106.004 36.9682 100.377 28.1303 87.5896 25.161" fill="#3F68D2"/>
</g>
<path d="M75.4129 59.2263H71.4044C71.2559 57.8176 70.8806 56.5296 70.3144 55.3509L70.3453 55.421L74.1888 53.0429C74.557 52.8119 74.7983 52.4077 74.7993 51.9478V47.1885C74.7993 46.477 74.2218 45.8995 73.5102 45.8995C72.7987 45.8995 72.2212 46.477 72.2212 47.1885V51.23L68.9892 53.2306C67.3599 51.1186 64.8467 49.7574 62.0128 49.7048H62.0046C59.1779 49.7563 56.6761 51.1032 55.0612 53.176L55.0457 53.1966L51.8715 51.231V47.1896C51.8715 46.478 51.294 45.9005 50.5825 45.9005C49.8709 45.9005 49.2934 46.478 49.2934 47.1896V51.9488C49.2934 52.4087 49.5347 52.813 49.8987 53.0409L49.9039 53.044L53.6824 55.3828C53.1358 56.5028 52.7532 57.8042 52.6078 59.1758L52.6037 59.2263H48.6777C47.9662 59.2263 47.3887 59.8038 47.3887 60.5154C47.3887 61.2269 47.9662 61.8044 48.6777 61.8044H52.6037C52.7563 63.2595 53.1534 64.5898 53.7535 65.8016L53.7226 65.7335L49.9276 67.9723C49.545 68.2003 49.2934 68.6117 49.2934 69.082V71.9385C49.2934 72.6501 49.8709 73.2276 50.5825 73.2276C51.294 73.2276 51.8715 72.6501 51.8715 71.9385V69.8173L55.1014 67.9115C56.7318 69.9616 59.2099 71.2785 61.9963 71.326H62.0046C64.8137 71.2775 67.3021 69.9472 68.9181 67.8971L68.9325 67.8775L72.2212 69.8183V71.9375C72.2212 72.6491 72.7987 73.2266 73.5102 73.2266C74.2218 73.2266 74.7993 72.6491 74.7993 71.9375V69.0809C74.7993 68.6107 74.5477 68.1992 74.1702 67.9744L74.1641 67.9713L70.3041 65.6943C70.863 64.562 71.2539 63.2451 71.4013 61.855L71.4055 61.8044H75.4139C76.1255 61.8044 76.703 61.2269 76.703 60.5154C76.703 59.8038 76.1245 59.2263 75.4129 59.2263ZM62.0035 68.7468C58.1776 68.7468 55.0653 65.0549 55.0653 60.5154C55.0653 55.9758 58.1776 52.2819 62.0035 52.2819C65.8295 52.2819 68.9418 55.9758 68.9418 60.5154C68.9418 65.0549 65.8295 68.7468 62.0035 68.7468ZM57.8755 48.9922H66.1255C66.837 48.9922 67.4145 48.4147 67.4145 47.7031C67.4248 47.5804 67.43 47.4371 67.43 47.2927C67.43 44.2938 64.9993 41.8632 62.0005 41.8632C59.0016 41.8632 56.5709 44.2938 56.5709 47.2927C56.5709 47.4371 56.5761 47.5804 56.5874 47.7217L56.5864 47.7031C56.5864 48.4147 57.1639 48.9922 57.8755 48.9922ZM64.6611 46.4141H59.3388C59.6255 45.19 60.7083 44.2918 62.0005 44.2918C63.2926 44.2918 64.3754 45.19 64.658 46.3955L64.6611 46.4141Z" fill="white" fill-opacity="0.42"/>
<defs>
<filter id="filter0_b_224_3345" x="-5.07422" y="-7.78137" width="132.889" height="132.15" filterUnits="userSpaceOnUse" color-interpolation-filters="sRGB">
<feFlood flood-opacity="0" result="BackgroundImageFix"/>
<feGaussianBlur in="BackgroundImageFix" stdDeviation="12"/>
<feComposite in2="SourceAlpha" operator="in" result="effect1_backgroundBlur_224_3345"/>
<feBlend mode="normal" in="SourceGraphic" in2="effect1_backgroundBlur_224_3345" result="shape"/>
</filter>
</defs>
</svg>
