<svg width="105" height="103" viewBox="0 0 105 103" fill="none" xmlns="http://www.w3.org/2000/svg">
<path d="M17.7468 12.4656L48.8842 4.21192C60.2312 1.20415 68.4508 6.11087 71.6111 17.7789L80.2753 49.767C83.4356 61.4351 78.7973 69.7501 67.4503 72.7578L36.3128 81.0116C24.9659 84.0193 16.776 79.1048 13.6156 67.4367L4.95142 35.4486C1.79106 23.7806 6.3998 15.4734 17.7468 12.4656Z" fill="#AC7C33"/>
<g filter="url(#filter0_b_224_3236)">
<path d="M87.5896 24.161L52.4994 16.0131C39.6743 13.0351 30.7841 18.5021 27.8199 31.1895L19.7009 65.9404C16.754 78.5534 22.2888 87.4482 35.1139 90.4262L70.2418 98.5829C83.0293 101.552 91.9744 96.0195 94.9212 83.4065L103.04 48.6556C106.004 35.9682 100.377 27.1303 87.5896 24.161" fill="#CF9641"/>
</g>
<path d="M66.0789 65.8107C64.9795 66.7272 63.5555 67.2866 62.0016 67.2985H61.9995C57.985 67.2985 54.7193 63.4248 54.7193 58.6617C54.7193 58.6466 54.7193 58.6282 54.7193 58.6109C54.7193 56.9153 55.1499 55.3215 55.9085 53.931L55.8825 53.9819C55.9864 53.7947 56.0481 53.5718 56.0481 53.3338C56.0481 52.5861 55.4421 51.9812 54.6955 51.9812C54.1858 51.9812 53.7422 52.2625 53.5117 52.6791L53.5084 52.6856C52.7748 54.023 52.2727 55.5909 52.1017 57.2561L52.0974 57.3092H48.0158C47.2692 57.3092 46.6632 57.9151 46.6632 58.6617C46.6632 59.4083 47.2692 60.0143 48.0158 60.0143H52.1353C52.2954 61.541 52.712 62.9368 53.3418 64.2082L53.3093 64.1368L49.3273 66.4859C48.9258 66.7251 48.6618 67.1568 48.6618 67.6502V70.6475C48.6618 71.3941 49.2678 72 50.0144 72C50.761 72 51.367 71.3941 51.367 70.6475V68.4217L54.7561 66.4221C56.4668 68.5732 59.067 69.9549 61.9908 70.0047H61.9995C64.2026 69.995 66.2206 69.2083 67.794 67.9045L67.7788 67.9164C68.0872 67.6664 68.282 67.2877 68.282 66.8636C68.282 66.117 67.676 65.511 66.9294 65.511C66.6069 65.511 66.3094 65.6246 66.0778 65.8129L66.0789 65.8107ZM57.6679 46.571H66.3245C67.0711 46.571 67.6771 45.9651 67.6771 45.2185C67.6879 45.0897 67.6933 44.9393 67.6933 44.7878C67.6933 41.6413 65.1429 39.0909 61.9962 39.0909C58.8495 39.0909 56.2991 41.6413 56.2991 44.7878C56.2991 44.9393 56.3045 45.0897 56.3164 45.238L56.3153 45.2185C56.3153 45.9651 56.9213 46.571 57.6679 46.571ZM64.788 43.8659H59.2034C59.5042 42.5815 60.6404 41.6391 61.9962 41.6391C63.352 41.6391 64.4882 42.5815 64.7847 43.8464L64.788 43.8659ZM78.1029 69.6888L71.2674 62.8535C71.5715 62.0279 71.7987 61.066 71.9091 60.0684L71.9145 60.0132H76.0707C76.8174 60.0132 77.4233 59.4072 77.4233 58.6606C77.4233 57.914 76.8174 57.3081 76.0707 57.3081H71.8647C71.7089 55.83 71.315 54.4786 70.721 53.2418L70.7534 53.3154L74.7863 50.8202C75.1726 50.5778 75.4258 50.1536 75.4269 49.6711V44.6775C75.4269 43.9308 74.8209 43.3249 74.0743 43.3249C73.3277 43.3249 72.7217 43.9308 72.7217 44.6775V48.918L69.3305 51.0171C67.6208 48.8011 64.9838 47.3728 62.0103 47.3176H62.0016C60.2054 47.3284 58.5357 47.8641 57.1355 48.7784L57.1702 48.7567L47.8059 39.3928C47.5614 39.1493 47.2248 39 46.8526 39C46.106 39 45.5 39.6059 45.5 40.3525C45.5 40.7248 45.6504 41.0613 45.8928 41.3058L76.1898 71.604C76.4343 71.8485 76.773 72 77.1463 72C77.894 72 78.5 71.3941 78.5 70.6464C78.5 70.2731 78.3485 69.9344 78.104 69.6898L78.1029 69.6888ZM61.9995 50.0216C66.014 50.0216 69.2797 53.8975 69.2797 58.6606C69.2786 59.3705 69.2061 60.0619 69.0665 60.7295L69.0784 60.6635L59.1482 50.7347C59.9749 50.2932 60.9553 50.0303 61.9973 50.0206H62.0005L61.9995 50.0216Z" fill="white" fill-opacity="0.42"/>
<defs>
<filter id="filter0_b_224_3236" x="-5.07422" y="-8.78134" width="132.889" height="132.15" filterUnits="userSpaceOnUse" color-interpolation-filters="sRGB">
<feFlood flood-opacity="0" result="BackgroundImageFix"/>
<feGaussianBlur in="BackgroundImageFix" stdDeviation="12"/>
<feComposite in2="SourceAlpha" operator="in" result="effect1_backgroundBlur_224_3236"/>
<feBlend mode="normal" in="SourceGraphic" in2="effect1_backgroundBlur_224_3236" result="shape"/>
</filter>
</defs>
</svg>
