<svg width="106" height="103" viewBox="0 0 106 103" fill="none" xmlns="http://www.w3.org/2000/svg">
<path d="M17.7468 12.4656L48.8842 4.21192C60.2312 1.20415 68.4508 6.11087 71.6111 17.7789L80.2753 49.767C83.4356 61.4351 78.7973 69.7501 67.4503 72.7578L36.3128 81.0116C24.9659 84.0193 16.776 79.1048 13.6156 67.4367L4.95142 35.4486C1.79106 23.7806 6.3998 15.4734 17.7468 12.4656Z" fill="#3159C0"/>
<g filter="url(#filter0_b_224_3246)">
<path d="M87.5896 24.161L52.4994 16.0131C39.6743 13.0351 30.7841 18.5021 27.8199 31.1895L19.7009 65.9404C16.754 78.5534 22.2888 87.4482 35.1139 90.4262L70.2418 98.5829C83.0293 101.552 91.9744 96.0195 94.9212 83.4065L103.04 48.6556C106.004 35.9682 100.377 27.1303 87.5896 24.161" fill="#3F68D2"/>
</g>
<g clip-path="url(#clip0_224_3246)">
<path d="M84.4136 43.855L47.1056 35.7067C44.7279 35.1874 42.3799 36.6936 41.8606 39.0713L36.8463 62.0301C36.327 64.4078 37.8332 66.7558 40.2108 67.2751L53.1252 70.0956L52.185 74.4004L50.0326 73.9303C49.6365 73.8438 49.2449 74.095 49.1584 74.4911C49.0719 74.8871 49.3231 75.2788 49.7192 75.3652L65.5034 78.8126C65.8994 78.8991 66.291 78.6479 66.3775 78.2518C66.464 77.8558 66.2128 77.4642 65.8168 77.3777L63.6644 76.9076L64.6046 72.6028L77.5189 75.4234C79.8966 75.9427 82.2446 74.4365 82.7638 72.0588L87.7782 49.1C88.2975 46.7223 86.7913 44.3743 84.4136 43.855ZM62.2294 76.5942L53.6199 74.7138L54.5601 70.409L63.1696 72.2894L62.2294 76.5942ZM81.3289 71.7454C80.9826 73.331 79.4179 74.3348 77.8323 73.9885L40.5242 65.8402C38.9386 65.4938 37.9349 63.9291 38.2812 62.3435L43.2955 39.3847C43.6418 37.7991 45.2066 36.7954 46.7922 37.1417L84.1002 45.29C85.6858 45.6363 86.6896 47.201 86.3433 48.7866L81.3289 71.7454ZM78.2526 50.0714C77.1788 49.6053 76.0421 50.0396 75.4906 50.9264L66.7491 49.0172L67.0624 47.5823L61.3227 46.3287L61.0094 47.7636L52.2678 45.8544C52.1363 44.8184 51.2827 43.9495 50.1138 43.9257C49.2561 43.9083 48.4422 44.4205 48.0907 45.2037C47.4923 46.5328 48.279 47.99 49.6206 48.283C50.5562 48.4874 51.4767 48.0585 51.9544 47.2894L60.696 49.1986L60.6258 49.52C54.0482 49.4319 48.0525 53.7766 46.2688 60.2845C46.1573 60.6916 46.4083 61.1118 46.8216 61.202C47.199 61.2845 47.58 61.061 47.6811 60.6877C49.2549 54.9202 54.5004 51.0371 60.3061 50.9836L60.0692 52.0684L65.8089 53.322L66.0461 52.2358C71.3005 54.7063 74.4494 60.4228 73.4756 66.3199C73.413 66.7031 73.6647 67.0647 74.0421 67.1472C74.4554 67.2374 74.8587 66.9602 74.9271 66.5437C76.0191 59.8847 72.3808 53.4359 66.3655 50.7736L66.4357 50.4521L75.1772 52.3614C75.2922 53.2599 75.9486 54.0332 76.8842 54.2375C78.2259 54.5306 79.5485 53.5341 79.5601 52.0768C79.5657 51.2181 79.0394 50.4131 78.2526 50.0714ZM49.934 46.8481C49.538 46.7616 49.2868 46.37 49.3733 45.9739C49.4598 45.5779 49.8514 45.3267 50.2474 45.4132C50.6435 45.4997 50.8947 45.8913 50.8082 46.2873C50.7217 46.6834 50.3301 46.9346 49.934 46.8481ZM64.6873 51.5737L61.8175 50.9469L62.4443 48.077L65.3141 48.7038L64.6873 51.5737ZM77.1976 52.8026C76.8016 52.7161 76.5503 52.3245 76.6368 51.9285C76.7233 51.5324 77.1149 51.2812 77.511 51.3677C77.907 51.4542 78.1582 51.8458 78.0718 52.2419C77.9853 52.6379 77.5936 52.8891 77.1976 52.8026Z" fill="white" fill-opacity="0.42"/>
<path fill-rule="evenodd" clip-rule="evenodd" d="M60.6039 63.3912C59.3254 63.112 58.5989 61.2554 59.0178 59.3376C59.4366 57.4198 60.871 56.0351 62.1495 56.3144C63.4281 56.5936 64.1545 58.4502 63.7357 60.368C63.3168 62.2858 61.8825 63.6705 60.6039 63.3912ZM60.0887 65.7502C59.7638 65.6792 59.5568 65.3566 59.6278 65.0316C59.6987 64.7067 60.0214 64.4997 60.3463 64.5707C60.6713 64.6417 60.8782 64.9643 60.8072 65.2892C60.7363 65.6142 60.4136 65.8211 60.0887 65.7502ZM68.0469 57.6024L68.1757 57.0126C68.2468 56.6871 68.0403 56.3652 67.7148 56.2941C67.3892 56.223 67.0673 56.4295 66.9962 56.755L66.8674 57.3448C66.7251 57.9964 66.082 58.409 65.4304 58.2667L64.9533 58.1625C64.6488 56.6199 63.7164 55.4208 62.4071 55.1349C61.0979 54.8489 59.7505 55.55 58.8306 56.8252L58.3535 56.721C57.7018 56.5787 57.2893 55.9356 57.4316 55.2839L57.5604 54.6942C57.6315 54.3687 57.425 54.0468 57.0995 53.9757C56.774 53.9046 56.4521 54.1111 56.381 54.4366L56.2522 55.0263C55.9676 56.3291 56.7932 57.616 58.0959 57.9005L58.2121 57.9259C58.0565 58.2873 57.9274 58.6719 57.8383 59.08L56.0691 58.6936C55.7435 58.6225 55.4216 58.829 55.3505 59.1545C55.2794 59.48 55.4859 59.8019 55.8115 59.873L57.6969 60.2848C57.6862 60.7212 57.7213 61.1434 57.8002 61.5431L57.3231 61.4389C56.0204 61.1544 54.7335 61.9799 54.4489 63.2827L54.3201 63.8724C54.249 64.1979 54.4555 64.5198 54.7811 64.5909C55.1066 64.662 55.4285 64.4555 55.4996 64.13L55.6284 63.5403C55.7707 62.8886 56.4138 62.4761 57.0655 62.6184L58.245 62.876L58.2512 62.8472C58.45 63.2274 58.6963 63.5622 58.9863 63.8356C58.7245 64.0781 58.5302 64.3989 58.4483 64.774C58.2349 65.7512 58.8539 66.7162 59.8311 66.9296C60.8083 67.1431 61.7733 66.524 61.9867 65.5468C62.0686 65.1718 62.0258 64.7991 61.889 64.4696C62.2666 64.3419 62.63 64.1403 62.9692 63.8776L62.9629 63.9064L64.1423 64.164C64.794 64.3064 65.2065 64.9494 65.0642 65.6011L64.9354 66.1908C64.8643 66.5164 65.0708 66.8383 65.3963 66.9094C65.7219 66.9805 66.0438 66.774 66.1149 66.4485L66.2437 65.8587C66.5282 64.556 65.7027 63.2691 64.3999 62.9846L63.9228 62.8804C64.1612 62.55 64.3691 62.1808 64.5414 61.7797L66.4268 62.1915C66.7523 62.2626 67.0742 62.0561 67.1453 61.7305C67.2164 61.405 67.0099 61.0831 66.6844 61.012L64.9152 60.6256C65.0043 60.2175 65.0473 59.8142 65.0566 59.4208L65.1728 59.4461C66.4755 59.7307 67.7624 58.9051 68.0469 57.6024Z" fill="white" fill-opacity="0.42"/>
</g>
<defs>
<filter id="filter0_b_224_3246" x="-5.07422" y="-8.78134" width="132.889" height="132.15" filterUnits="userSpaceOnUse" color-interpolation-filters="sRGB">
<feFlood flood-opacity="0" result="BackgroundImageFix"/>
<feGaussianBlur in="BackgroundImageFix" stdDeviation="12"/>
<feComposite in2="SourceAlpha" operator="in" result="effect1_backgroundBlur_224_3246"/>
<feBlend mode="normal" in="SourceGraphic" in2="effect1_backgroundBlur_224_3246" result="shape"/>
</filter>
<clipPath id="clip0_224_3246">
<rect width="47" height="47" fill="white" transform="translate(44.0547 29.0269) rotate(12.3203)"/>
</clipPath>
</defs>
</svg>
