<svg width="105" height="101" viewBox="0 0 105 101" fill="none" xmlns="http://www.w3.org/2000/svg">
<path d="M17.7468 13.4656L48.8842 5.21192C60.2312 2.20415 68.4508 7.11087 71.6111 18.7789L80.2753 50.767C83.4356 62.4351 78.7973 70.7501 67.4503 73.7578L36.3128 82.0116C24.9659 85.0193 16.776 80.1048 13.6156 68.4367L4.95142 36.4486C1.79106 24.7806 6.3998 16.4734 17.7468 13.4656Z" fill="#AC7C33"/>
<g filter="url(#filter0_b_224_3321)">
<path d="M87.5877 25.161L52.4974 17.0131C39.6723 14.0351 30.7822 19.5021 27.8179 32.1895L19.6989 66.9404C16.7521 79.5534 22.2869 88.4482 35.1119 91.4262L70.2398 99.5829C83.0273 102.552 91.9725 97.0195 94.9193 84.4065L103.038 49.6556C106.003 36.9682 100.375 28.1303 87.5877 25.161" fill="#CF9641"/>
</g>
<g clip-path="url(#clip0_224_3321)">
<path d="M73.0047 41.656L76.9597 42.6301C79.641 43.2904 81.2793 45.9994 80.6189 48.6807L73.8945 75.9838C73.2341 78.6651 70.5251 80.3034 67.8438 79.643L45.823 74.2195C43.1417 73.5591 41.5034 70.8502 42.1638 68.1689L48.8883 40.8658C49.5486 38.1845 52.2576 36.5462 54.9389 37.2066L58.8939 38.1807" stroke="white" stroke-opacity="0.42" stroke-width="3" stroke-miterlimit="10"/>
<path d="M73.4408 39.8829L72.572 43.4106C72.3371 44.3435 71.7435 45.146 70.9203 45.6439C70.0971 46.1417 69.1108 46.2946 68.1755 46.0694L61.1201 44.3318C60.1872 44.0969 59.3846 43.5033 58.8868 42.6802C58.389 41.857 58.236 40.8706 58.4612 39.9353L59.3301 36.4076L73.4408 39.8829Z" stroke="#E3C291" stroke-width="3" stroke-miterlimit="10"/>
<g clip-path="url(#clip1_224_3321)">
<path d="M63.4192 50.7967C65.4692 51.315 66.7353 53.3496 66.3229 55.4001L66.2792 55.5923L66.2387 55.7562C66.9771 56.2481 67.4586 57.0517 67.5446 57.9344C68.0868 58.0174 68.6429 57.9093 69.1176 57.6262C69.6061 57.3349 69.9725 56.8796 70.1538 56.3448L70.2073 56.1637L70.349 55.6031L70.3837 55.4931C70.5593 55.0312 71.0571 54.764 71.5479 54.8881C72.0387 55.0121 72.3497 55.4838 72.2847 55.9737L72.2629 56.087L72.1212 56.6475L72.0588 56.8694C71.7412 57.8945 71.0551 58.7693 70.1288 59.3217C69.2543 59.8432 68.2289 60.0399 67.231 59.8855L66.7415 61.8179L69.6124 62.5437C70.1409 62.6773 70.461 63.2141 70.3274 63.7426C70.1938 64.2711 69.657 64.5913 69.1285 64.4576L66.2576 63.7318L65.7699 65.6647C66.7212 66.0031 67.53 66.6635 68.0516 67.5379C68.604 68.4642 68.7919 69.56 68.5842 70.6128L68.5336 70.8377L68.3919 71.3983C68.2583 71.9268 67.7215 72.2469 67.193 72.1133C66.7022 71.9892 66.3912 71.5175 66.4562 71.0276L66.478 70.9144L66.6197 70.3538C66.7746 69.7411 66.6798 69.0919 66.3561 68.5491C66.0647 68.0606 65.6094 67.6942 65.0746 67.5129L64.961 67.4803C63.6085 69.509 61.0791 70.5676 58.5804 69.9358C56.0817 69.3041 54.3594 67.1706 54.1335 64.7428L54.018 64.7176C53.4613 64.6229 52.8866 64.7289 52.3981 65.0202C51.9096 65.3116 51.5432 65.7669 51.3619 66.3017L51.3084 66.4828L51.1667 67.0434L51.132 67.1533C50.9564 67.6153 50.4585 67.8825 49.9678 67.7584C49.477 67.6343 49.1659 67.1626 49.231 66.6727L49.2528 66.5595L49.3945 65.9989L49.4569 65.777C49.7745 64.752 50.4606 63.8772 51.3869 63.3248C52.2617 62.8031 53.2875 62.6065 54.2856 62.7611L54.7742 60.8286L51.9033 60.1027C51.3748 59.9691 51.0547 59.4324 51.1883 58.9038C51.3219 58.3753 51.8587 58.0552 52.3872 58.1888L55.258 58.9146L55.7467 56.9821C54.795 56.6438 53.9858 55.9833 53.4641 55.1085C52.9117 54.1822 52.7238 53.0865 52.9315 52.0336L52.9821 51.8088L53.1238 51.2482C53.2574 50.7197 53.7942 50.3996 54.3227 50.5332C54.8134 50.6572 55.1245 51.1289 55.0595 51.6188L55.0377 51.7321L54.896 52.2926C54.7411 52.9054 54.8359 53.5545 55.1596 54.0973C55.4428 54.5721 55.8807 54.9314 56.396 55.1177C56.8925 54.38 57.6985 53.9017 58.5824 53.8201L58.6236 53.6568C59.1581 51.5427 61.3051 50.2622 63.4192 50.7967ZM64.8384 57.2643L59.0967 55.8126C58.6059 55.6886 58.108 55.9557 57.9324 56.4177L57.8978 56.5276L56.2042 63.2263C55.6697 65.3404 56.9502 67.4874 59.0643 68.0219C61.1143 68.5402 63.1953 67.3518 63.8069 65.3517L63.8599 65.1619L65.5534 58.4632C65.6775 57.9724 65.4103 57.4745 64.9484 57.2989L64.8384 57.2643ZM62.9353 52.7106C61.9263 52.4555 60.9023 53.0273 60.5789 53.9991L60.5375 54.1407L64.3653 55.1084C64.6077 54.1499 64.1038 53.1778 63.2195 52.8057L63.0768 52.752L62.9353 52.7106Z" fill="white" fill-opacity="0.42"/>
</g>
</g>
<defs>
<filter id="filter0_b_224_3321" x="-5.07617" y="-7.78137" width="132.889" height="132.15" filterUnits="userSpaceOnUse" color-interpolation-filters="sRGB">
<feFlood flood-opacity="0" result="BackgroundImageFix"/>
<feGaussianBlur in="BackgroundImageFix" stdDeviation="12"/>
<feComposite in2="SourceAlpha" operator="in" result="effect1_backgroundBlur_224_3321"/>
<feBlend mode="normal" in="SourceGraphic" in2="effect1_backgroundBlur_224_3321" result="shape"/>
</filter>
<clipPath id="clip0_224_3321">
<rect width="45.6515" height="45.6515" fill="white" transform="translate(44.9043 29.9163) rotate(13.836)"/>
</clipPath>
<clipPath id="clip1_224_3321">
<rect width="23.6896" height="23.6896" fill="white" transform="translate(52.4199 45.9795) rotate(14.1883)"/>
</clipPath>
</defs>
</svg>
