<svg width="104" height="101" viewBox="0 0 104 101" fill="none" xmlns="http://www.w3.org/2000/svg">
<path d="M17.7468 13.4656L48.8842 5.21192C60.2312 2.20415 68.4508 7.11087 71.6111 18.7789L80.2753 50.767C83.4356 62.4351 78.7973 70.7501 67.4503 73.7578L36.3128 82.0116C24.9659 85.0193 16.776 80.1048 13.6156 68.4367L4.95142 36.4486C1.79106 24.7806 6.3998 16.4734 17.7468 13.4656Z" fill="#B63B3B"/>
<g filter="url(#filter0_b_224_3291)">
<path d="M87.5896 25.161L52.4994 17.0131C39.6743 14.0351 30.7841 19.5021 27.8199 32.1895L19.7009 66.9404C16.754 79.5534 22.2888 88.4482 35.1139 91.4262L70.2418 99.5829C83.0293 102.552 91.9744 97.0195 94.9212 84.4065L103.04 49.6556C106.004 36.9682 100.377 28.1303 87.5896 25.161" fill="#D24848"/>
</g>
<g clip-path="url(#clip0_224_3291)">
<path d="M56.3121 43.9626L47.8775 44.7926C45.5483 45.0218 43.846 47.0958 44.0752 49.425L45.7353 66.2942C45.9645 68.6234 48.0384 70.3257 50.3676 70.0965L75.6715 67.6064C78.0007 67.3771 79.703 65.3032 79.4737 62.974L79.2662 60.8654" stroke="white" stroke-opacity="0.42" stroke-width="2.4" stroke-linecap="round" stroke-linejoin="round"/>
<path d="M63.0195 68.8514L63.8496 77.286" stroke="#E59595" stroke-width="2.3" stroke-linecap="round" stroke-linejoin="round"/>
<path d="M55.4141 78.116L72.2833 76.4559" stroke="#E59595" stroke-width="2.3" stroke-linecap="round" stroke-linejoin="round"/>
<path fill-rule="evenodd" clip-rule="evenodd" d="M71.6538 43.4353C72.191 43.3824 72.6699 43.7755 72.7228 44.3127C72.7757 44.8499 72.3826 45.3288 71.8454 45.3817L70.8721 45.4775L70.9679 46.4507C71.0208 46.9879 70.6277 47.4668 70.0905 47.5197C69.5532 47.5726 69.0743 47.1795 69.0215 46.6423L68.9257 45.669L67.9525 45.7648C67.4152 45.8177 66.9363 45.4246 66.8835 44.8874C66.8306 44.3501 67.2237 43.8712 67.7609 43.8184L68.7341 43.7226L68.6384 42.7494C68.5855 42.2121 68.9786 41.7332 69.5158 41.6804C70.053 41.6275 70.5319 42.0206 70.5848 42.5578L70.6806 43.531L71.6538 43.4353ZM70.3778 50.4394C68.2678 50.647 66.2217 48.1481 65.9102 44.9831C65.5988 41.8182 67.1185 38.9683 69.2285 38.7607C71.3384 38.553 73.3846 41.052 73.696 44.2169C74.0075 47.3819 72.4877 50.2317 70.3778 50.4394ZM70.7609 54.3323C70.2246 54.3851 69.7447 53.9911 69.6919 53.4548C69.6391 52.9186 70.0331 52.4386 70.5693 52.3858C71.1056 52.3331 71.5856 52.727 71.6383 53.2633C71.6911 53.7995 71.2971 54.2795 70.7609 54.3323ZM78.9607 37.8029L78.865 36.8297C78.8121 36.2925 78.3332 35.8994 77.796 35.9523C77.2588 36.0051 76.8657 36.484 76.9185 37.0213L77.0143 37.9945C77.1201 39.0699 76.3348 40.0267 75.2594 40.1325L74.4721 40.21C73.233 37.9843 71.1975 36.6016 69.0369 36.8142C66.8764 37.0268 65.1494 38.7798 64.368 41.2043L63.5807 41.2818C62.5053 41.3876 61.5485 40.6023 61.4427 39.5269L61.3469 38.5536C61.294 38.0164 60.8151 37.6233 60.2779 37.6762C59.7407 37.7291 59.3476 38.208 59.4005 38.7452L59.4962 39.7184C59.7078 41.8683 61.6224 43.4398 63.7722 43.2282L63.964 43.2094C63.9046 43.8441 63.8975 44.5012 63.9638 45.1747L61.0441 45.462C60.5069 45.5149 60.1138 45.9938 60.1667 46.531C60.2195 47.0682 60.6984 47.4613 61.2357 47.4085L64.3471 47.1023C64.5484 47.7801 64.8131 48.4134 65.1342 48.9901L64.3469 49.0676C62.197 49.2791 60.6255 51.1937 60.8371 53.3436L60.9328 54.3168C60.9857 54.854 61.4646 55.2471 62.0018 55.1943C62.5391 55.1414 62.9322 54.6625 62.8793 54.1253L62.7835 53.152C62.6777 52.0766 63.463 51.1199 64.5384 51.014L66.4849 50.8225L66.4802 50.775C66.9762 51.2617 67.5229 51.6548 68.1063 51.9315C67.8238 52.4359 67.6845 53.0274 67.7454 53.6464C67.9041 55.259 69.3398 56.4374 70.9524 56.2787C72.5651 56.12 73.7435 54.6844 73.5848 53.0717C73.5239 52.4528 73.2719 51.8998 72.8965 51.4601C73.4148 51.075 73.8744 50.5829 74.266 50.0088L74.2707 50.0563L76.2171 49.8647C77.2925 49.7589 78.2493 50.5442 78.3551 51.6196L78.4509 52.5929C78.5038 53.1301 78.9827 53.5232 79.5199 53.4703C80.0571 53.4175 80.4502 52.9385 80.3974 52.4013L80.3016 51.4281C80.09 49.2782 78.1754 47.7067 76.0256 47.9183L75.2382 47.9958C75.4408 47.3676 75.577 46.6948 75.6423 45.9907L78.7537 45.6845C79.2909 45.6317 79.684 45.1527 79.6312 44.6155C79.5783 44.0783 79.0994 43.6852 78.5622 43.7381L75.6425 44.0254C75.5762 43.3519 75.4412 42.7088 75.2592 42.0978L75.4509 42.0789C77.6008 41.8674 79.1723 39.9528 78.9607 37.8029Z" fill="#E59595"/>
</g>
<defs>
<filter id="filter0_b_224_3291" x="-5.07422" y="-7.78137" width="132.889" height="132.15" filterUnits="userSpaceOnUse" color-interpolation-filters="sRGB">
<feFlood flood-opacity="0" result="BackgroundImageFix"/>
<feGaussianBlur in="BackgroundImageFix" stdDeviation="12"/>
<feComposite in2="SourceAlpha" operator="in" result="effect1_backgroundBlur_224_3291"/>
<feBlend mode="normal" in="SourceGraphic" in2="effect1_backgroundBlur_224_3291" result="shape"/>
</filter>
<clipPath id="clip0_224_3291">
<rect width="50.8522" height="50.8522" fill="white" transform="translate(34.3945 37.603) rotate(-5.62033)"/>
</clipPath>
</defs>
</svg>
