<svg width="104" height="103" viewBox="0 0 104 103" fill="none" xmlns="http://www.w3.org/2000/svg">
<path d="M17.7468 12.4656L48.8842 4.21192C60.2312 1.20415 68.4508 6.11087 71.6111 17.7789L80.2753 49.767C83.4356 61.4351 78.7973 69.7501 67.4503 72.7578L36.3128 81.0116C24.9659 84.0193 16.776 79.1048 13.6156 67.4367L4.95142 35.4486C1.79106 23.7806 6.3998 15.4734 17.7468 12.4656Z" fill="#3159C0"/>
<g filter="url(#filter0_b_224_3156)">
<path d="M87.5857 24.162L52.4954 16.0141C39.6704 13.0361 30.7802 18.503 27.816 31.1905L19.697 65.9414C16.7501 78.5544 22.2849 87.4492 35.11 90.4272L70.2379 98.5838C83.0253 101.553 91.9705 96.0205 94.9173 83.4075L103.036 48.6566C106.001 35.9691 100.373 27.1313 87.5857 24.162" fill="#3F68D2"/>
</g>
<g clip-path="url(#clip0_224_3156)">
<path d="M62.9146 77.6387L51.0171 74.7707C45.8703 73.53 42.5514 68.984 43.6041 64.617L49.1603 41.5678C50.213 37.2008 55.2387 34.6664 60.3855 35.9071L72.283 38.7751C77.4298 40.0158 80.7487 44.5617 79.696 48.9287L74.1398 71.9779C73.0871 76.3449 68.0614 78.8794 62.9146 77.6387Z" stroke="white" stroke-opacity="0.42" stroke-width="2"/>
<path d="M52.9922 70.3513L63.1708 72.805" stroke="white" stroke-opacity="0.42" stroke-width="2" stroke-linecap="round"/>
<g clip-path="url(#clip1_224_3156)">
<path d="M63.8659 48.7805C65.3188 49.1307 66.2295 50.5587 65.9541 52.011L65.9248 52.1472L65.8974 52.2633C66.4231 52.6052 66.7697 53.1694 66.8374 53.7925C67.2212 53.8469 67.6134 53.7662 67.9466 53.5624C68.2896 53.3526 68.5449 53.028 68.6689 52.6486L68.7053 52.5202L68.801 52.1229L68.8247 52.045C68.9452 51.7171 69.2949 51.5244 69.6427 51.6082C69.9905 51.6921 70.2141 52.023 70.1719 52.3697L70.1574 52.4499L70.0617 52.8472L70.0193 53.0045C69.8029 53.7314 69.3249 54.355 68.6745 54.7527C68.0606 55.1281 67.3375 55.2751 66.6311 55.1738L66.3003 56.5433L68.3348 57.0338C68.7094 57.1241 68.9399 57.5009 68.8496 57.8755C68.7593 58.25 68.3824 58.4805 68.0079 58.3902L65.9733 57.8997L65.6438 59.2695C66.3187 59.5013 66.8955 59.9616 67.2709 60.5755C67.6686 61.2258 67.81 61.9988 67.6714 62.7444L67.6374 62.9038L67.5417 63.301C67.4514 63.6756 67.0746 63.906 66.7 63.8158C66.3522 63.7319 66.1287 63.401 66.1708 63.0543L66.1853 62.9741L66.2811 62.5768C66.3857 62.1426 66.3136 61.6845 66.0806 61.3034C65.8709 60.9605 65.5462 60.7051 65.1668 60.5812L65.0863 60.559C64.1463 62.0033 62.367 62.7713 60.5962 62.3444C58.8254 61.9175 57.5915 60.4232 57.4128 58.7092L57.331 58.6923C56.9368 58.6298 56.5315 58.7092 56.1886 58.9189C55.8456 59.1286 55.5903 59.4532 55.4663 59.8326L55.4299 59.961L55.3342 60.3583L55.3105 60.4363C55.19 60.7642 54.8403 60.9569 54.4925 60.873C54.1447 60.7892 53.9211 60.4583 53.9633 60.1115L53.9778 60.0313L54.0735 59.6341L54.1159 59.4768C54.3323 58.7499 54.8103 58.1263 55.4607 57.7286C56.0748 57.353 56.7982 57.206 57.5048 57.3075L57.8349 55.9379L55.8004 55.4475C55.4258 55.3572 55.1954 54.9803 55.2856 54.6058C55.3759 54.2312 55.7528 54.0008 56.1273 54.0911L58.1619 54.5815L58.4921 53.2119C57.8169 52.9803 57.2399 52.5198 56.8643 51.9057C56.4666 51.2554 56.3253 50.4825 56.4638 49.7368L56.4978 49.5775L56.5935 49.1802C56.6838 48.8057 57.0607 48.5752 57.4352 48.6655C57.783 48.7493 58.0066 49.0803 57.9644 49.427L57.9499 49.5072L57.8542 49.9045C57.7495 50.3387 57.8216 50.7967 58.0546 51.1778C58.2584 51.5111 58.5707 51.7616 58.9364 51.8893C59.2815 51.364 59.8474 51.0197 60.4714 50.9551L60.4992 50.8393C60.8604 49.3411 62.3677 48.4193 63.8659 48.7805ZM64.9196 53.3401L60.8504 52.3592C60.5026 52.2754 60.1529 52.4681 60.0324 52.7959L60.0088 52.8739L58.8644 57.6213C58.5032 59.1195 59.425 60.6268 60.9232 60.988C62.376 61.3382 63.8374 60.4821 64.254 59.0638L64.2899 58.9292L65.4343 54.1818C65.5182 53.834 65.3255 53.4842 64.9976 53.3637L64.9196 53.3401ZM63.539 50.1369C62.8239 49.9645 62.1047 50.3766 61.8837 51.066L61.8556 51.1663L64.5684 51.8202C64.7321 51.1409 64.3684 50.4579 63.7406 50.2018L63.6393 50.165L63.539 50.1369Z" fill="white" fill-opacity="0.42"/>
</g>
<circle cx="65.9054" cy="41.1539" r="0.95183" transform="rotate(13.5531 65.9054 41.1539)" fill="white" fill-opacity="0.42"/>
</g>
<defs>
<filter id="filter0_b_224_3156" x="-5.07812" y="-8.7804" width="132.889" height="132.15" filterUnits="userSpaceOnUse" color-interpolation-filters="sRGB">
<feFlood flood-opacity="0" result="BackgroundImageFix"/>
<feGaussianBlur in="BackgroundImageFix" stdDeviation="12"/>
<feComposite in2="SourceAlpha" operator="in" result="effect1_backgroundBlur_224_3156"/>
<feBlend mode="normal" in="SourceGraphic" in2="effect1_backgroundBlur_224_3156" result="shape"/>
</filter>
<clipPath id="clip0_224_3156">
<rect width="52.7336" height="52.7336" fill="white" transform="translate(41.8574 25.0505) rotate(13.5531)"/>
</clipPath>
<clipPath id="clip1_224_3156">
<rect width="16.7429" height="16.7429" fill="white" transform="translate(56.0547 45.4623) rotate(13.5531)"/>
</clipPath>
</defs>
</svg>
