<svg width="104" height="103" viewBox="0 0 104 103" fill="none" xmlns="http://www.w3.org/2000/svg">
<path d="M17.7468 12.4656L48.8842 4.21192C60.2312 1.20415 68.4508 6.11087 71.6111 17.7789L80.2753 49.767C83.4356 61.4351 78.7973 69.7501 67.4503 72.7578L36.3128 81.0116C24.9659 84.0193 16.776 79.1048 13.6156 67.4367L4.95142 35.4486C1.79106 23.7806 6.3998 15.4734 17.7468 12.4656Z" fill="#AC7C33"/>
<g filter="url(#filter0_b_224_3143)">
<path d="M87.5838 24.162L52.4935 16.0141C39.6684 13.0361 30.7783 18.503 27.814 31.1905L19.695 65.9414C16.7482 78.5544 22.283 87.4492 35.108 90.4272L70.2359 98.5838C83.0234 101.553 91.9685 96.0205 94.9154 83.4075L103.034 48.6566C105.999 35.9691 100.371 27.1313 87.5838 24.162" fill="#CF9641"/>
</g>
<g clip-path="url(#clip0_224_3143)">
<path d="M41.3006 55.2082L44.0534 42.8416C45.067 38.2883 49.5798 35.4188 54.1331 36.4324L78.8662 41.9381C83.4197 42.9518 86.2891 47.4645 85.2755 52.0178L82.5226 64.3844C81.509 68.9377 76.9961 71.8072 72.4428 70.7937L47.7097 65.2879C43.1564 64.2744 40.287 59.7614 41.3006 55.2082Z" stroke="white" stroke-opacity="0.42" stroke-width="2"/>
<path d="M34.7363 67.2175L82.5656 77.8646" stroke="white" stroke-opacity="0.42" stroke-width="2" stroke-linecap="round"/>
<g clip-path="url(#clip1_224_3143)">
<path d="M64.7714 47.1127C66.176 47.4254 67.0769 48.7847 66.8362 50.1876L66.8103 50.3192L66.7859 50.4314C67.2977 50.7517 67.6409 51.289 67.7165 51.8877C68.087 51.9336 68.4631 51.8493 68.7806 51.6475C69.1072 51.4398 69.3475 51.123 69.4605 50.7556L69.4933 50.6314L69.5788 50.2473L69.6003 50.1718C69.7107 49.8542 70.0442 49.6628 70.3805 49.7376C70.7167 49.8125 70.9375 50.1273 70.9028 50.4618L70.8902 50.5392L70.8047 50.9233L70.7665 51.0755C70.5704 51.7789 70.1208 52.3873 69.5014 52.7811C68.9167 53.1529 68.223 53.3066 67.5412 53.221L67.2459 54.545L69.2128 54.9829C69.5749 55.0635 69.8031 55.4224 69.7225 55.7845C69.6419 56.1466 69.283 56.3748 68.9209 56.2942L66.9539 55.8563L66.6598 57.1806C67.3135 57.3923 67.8765 57.8258 68.2483 58.4105C68.6421 59.0298 68.7912 59.7715 68.6704 60.4917L68.6404 60.6457L68.5549 61.0298C68.4743 61.3919 68.1154 61.6201 67.7533 61.5395C67.4171 61.4646 67.1963 61.1498 67.231 60.8153L67.2436 60.7379L67.3291 60.3538C67.4225 59.934 67.3454 59.4942 67.1146 59.1313C66.9069 58.8047 66.5901 58.5643 66.2228 58.4514L66.1449 58.4314C65.2643 59.8377 63.5643 60.607 61.8524 60.2259C60.1404 59.8448 58.9273 58.427 58.7264 56.78L58.6474 56.7651C58.2668 56.7115 57.878 56.7948 57.5513 57.0025C57.2247 57.2102 56.9843 57.527 56.8714 57.8943L56.8386 58.0185L56.7531 58.4026L56.7316 58.4781C56.6212 58.7958 56.2877 58.9872 55.9514 58.9123C55.6152 58.8375 55.3944 58.5227 55.4291 58.1882L55.4417 58.1107L55.5272 57.7266L55.5654 57.5745C55.7615 56.871 56.2111 56.2626 56.8305 55.8688C57.4154 55.4969 58.1094 55.3432 58.7913 55.429L59.086 54.1049L57.1191 53.6671C56.757 53.5864 56.5288 53.2276 56.6094 52.8654C56.69 52.5033 57.0489 52.2751 57.411 52.3557L59.3779 52.7936L59.6727 51.4695C59.0188 51.2579 58.4555 50.8244 58.0836 50.2395C57.6898 49.6201 57.5407 48.8784 57.6615 48.1582L57.6915 48.0042L57.777 47.6202C57.8576 47.2581 58.2165 47.0299 58.5786 47.1105C58.9148 47.1853 59.1356 47.5001 59.1009 47.8346L59.0883 47.9121L59.0028 48.2962C58.9094 48.716 58.9865 49.1557 59.2173 49.5186C59.4191 49.8361 59.724 50.072 60.0781 50.1887C60.4015 49.6772 60.9405 49.3362 61.5401 49.2635L61.565 49.1515C61.8874 47.7031 63.323 46.7903 64.7714 47.1127ZM65.8627 51.4845L61.9287 50.6088C61.5925 50.534 61.259 50.7254 61.1486 51.043L61.1271 51.1185L60.1055 55.7081C59.783 57.1566 60.6958 58.5922 62.1443 58.9146C63.5488 59.2272 64.9413 58.3784 65.3184 57.0059L65.3507 56.8758L66.3724 52.2861C66.4472 51.9499 66.2558 51.6164 65.9382 51.506L65.8627 51.4845ZM64.4795 48.424C63.7882 48.2702 63.1028 48.679 62.9017 49.3464L62.8763 49.4435L65.4989 50.0273C65.6451 49.3705 65.2834 48.7191 64.6747 48.4832L64.5766 48.4494L64.4795 48.424Z" fill="white" fill-opacity="0.42"/>
</g>
</g>
<defs>
<filter id="filter0_b_224_3143" x="-5.08008" y="-8.7804" width="132.889" height="132.15" filterUnits="userSpaceOnUse" color-interpolation-filters="sRGB">
<feFlood flood-opacity="0" result="BackgroundImageFix"/>
<feGaussianBlur in="BackgroundImageFix" stdDeviation="12"/>
<feComposite in2="SourceAlpha" operator="in" result="effect1_backgroundBlur_224_3143"/>
<feBlend mode="normal" in="SourceGraphic" in2="effect1_backgroundBlur_224_3143" result="shape"/>
</filter>
<clipPath id="clip0_224_3143">
<rect width="55.351" height="55.351" fill="white" transform="translate(41.4121 24.5173) rotate(12.5497)"/>
</clipPath>
<clipPath id="clip1_224_3143">
<rect width="16.121" height="16.121" fill="white" transform="translate(57.1953 44.0499) rotate(12.5497)"/>
</clipPath>
</defs>
</svg>
