<svg width="105" height="103" viewBox="0 0 105 103" fill="none" xmlns="http://www.w3.org/2000/svg">
<path d="M17.7468 13.4656L48.8842 5.21192C60.2312 2.20415 68.4508 7.11087 71.6111 18.7789L80.2753 50.767C83.4356 62.4351 78.7973 70.7501 67.4503 73.7578L36.3128 82.0116C24.9659 85.0193 16.776 80.1048 13.6156 68.4367L4.95142 36.4486C1.79106 24.7806 6.3998 16.4734 17.7468 13.4656Z" fill="#AC7C33"/>
<g filter="url(#filter0_b_224_3257)">
<path d="M87.5896 25.161L52.4994 17.0131C39.6743 14.0351 30.7841 19.5021 27.8199 32.1895L19.7009 66.9404C16.754 79.5534 22.2888 88.4482 35.1139 91.4262L70.2418 99.5829C83.0293 102.552 91.9744 97.0195 94.9212 84.4065L103.04 49.6556C106.004 36.9682 100.377 28.1303 87.5896 25.161" fill="#CF9641"/>
</g>
<g clip-path="url(#clip0_224_3257)">
<path d="M79.5247 38.4017C79.2931 35.6549 76.8248 33.6123 74.0225 33.8486L47.5861 36.0776C44.7838 36.3139 42.6923 38.741 42.9239 41.4878L46.0631 78.7186C46.2948 81.4654 48.7631 83.508 51.5654 83.2717L70.1824 81.7019C70.4927 81.6758 70.7935 81.5302 71.0063 81.2836L81.735 68.8338C81.9318 68.6054 82.0449 68.2916 82.0176 67.9679L79.5247 38.4017ZM71.0483 77.5629L70.6427 72.7528C70.521 71.3099 71.6194 70.0353 73.0915 69.9112L77.9987 69.4974C77.2606 70.3538 71.7654 76.7305 71.0483 77.5629ZM79.5052 66.9886L72.8922 67.5462C70.0899 67.7825 67.9984 70.2094 68.23 72.9562L68.7766 79.4384L51.3659 80.9065C49.894 81.0306 48.5976 79.9577 48.4759 78.515L45.3367 41.2844C45.2151 39.8415 46.3136 38.5668 47.7855 38.4427L74.2219 36.2136C75.6939 36.0895 76.9903 37.1624 77.1119 38.6051L79.5052 66.9887L79.5052 66.9886Z" fill="white" fill-opacity="0.42"/>
<path d="M69.2825 62.6126L50.2235 64.2196C49.6535 64.2677 49.2345 64.8179 49.2877 65.4484C49.3408 66.079 49.846 66.5513 50.416 66.5032L69.475 64.8962C70.0452 64.8481 70.464 64.298 70.4108 63.6674C70.3576 63.0368 69.8526 62.5645 69.2825 62.6126Z" fill="white" fill-opacity="0.42"/>
<path d="M63.7301 67.2333L50.8028 68.3233C50.1006 68.3825 49.5744 68.9417 49.6275 69.5723C49.6807 70.2029 50.2931 70.6661 50.9953 70.6069L63.9227 69.5169C64.6251 69.4577 65.1511 68.8984 65.0979 68.2679C65.0448 67.6373 64.4326 67.1741 63.7301 67.2333Z" fill="white" fill-opacity="0.42"/>
<path d="M64.3669 74.7818L51.4395 75.8718C50.7373 75.931 50.2111 76.4902 50.2642 77.1208C50.3174 77.7514 50.9298 78.2146 51.632 78.1554L64.5594 77.0654C65.2618 77.0061 65.7878 76.4469 65.7347 75.8164C65.6815 75.1858 65.0693 74.7226 64.3669 74.7818Z" fill="white" fill-opacity="0.42"/>
<path fill-rule="evenodd" clip-rule="evenodd" d="M63.7097 47.82L63.1574 48.4741L63.8114 49.0265C64.1731 49.3319 64.2187 49.872 63.9131 50.2329C63.6077 50.5946 63.0676 50.6402 62.7067 50.3346L62.0527 49.7823L61.5004 50.4363C61.1949 50.7981 60.6548 50.8436 60.2931 50.5381C59.9323 50.2334 59.8868 49.6933 60.1914 49.3317L60.7437 48.6776L60.0897 48.1253C59.7288 47.8197 59.6833 47.2796 59.9879 46.9188C60.2934 46.5571 60.8335 46.5116 61.1952 46.817L61.8492 47.3694L62.4016 46.7153C62.7062 46.3537 63.2462 46.3081 63.608 46.6136C63.9696 46.9182 64.0151 47.4583 63.7097 47.82ZM62.3826 53.6949C60.5321 53.8509 58.7722 51.6381 58.5383 48.8636C58.3043 46.0891 59.6688 43.6128 61.5193 43.4568C63.369 43.3008 65.1297 45.5136 65.3637 48.2881C65.5976 51.0626 64.2323 53.5389 62.3826 53.6949ZM62.6703 57.1075C62.1994 57.1472 61.7849 56.7964 61.7452 56.3263C61.7056 55.8562 62.0555 55.4409 62.5265 55.4012C62.9966 55.3616 63.4119 55.7123 63.4516 56.1824C63.4912 56.6525 63.1404 57.0679 62.6703 57.1075ZM70.0511 42.7374L69.9791 41.8842C69.9394 41.4133 69.525 41.0633 69.054 41.103C68.5822 41.1428 68.2331 41.5572 68.2728 42.0281L68.3447 42.8813C68.4242 43.824 67.7242 44.6521 66.7822 44.7315L66.0912 44.7898C65.0346 42.8261 63.2687 41.5908 61.3755 41.7504C59.4814 41.9101 57.9481 43.4237 57.2344 45.5366L56.5442 45.5948C55.6014 45.6742 54.7735 44.975 54.694 44.0323L54.622 43.1791C54.5823 42.7082 54.1679 42.3582 53.6969 42.3979C53.2251 42.4377 52.876 42.852 52.9157 43.323L52.9876 44.1762C53.1465 46.0608 54.8026 47.4601 56.6881 47.3011L56.8553 47.287C56.7955 47.8419 56.7822 48.417 56.8319 49.0074L54.2724 49.2233C53.8006 49.263 53.4515 49.6774 53.4912 50.1484C53.5309 50.6193 53.9445 50.9694 54.4163 50.9296L57.143 50.6997C57.3119 51.2955 57.5359 51.8532 57.8099 52.3619L57.1197 52.4201C55.2342 52.5791 53.8358 54.2359 53.9947 56.1206L54.0667 56.9737C54.1064 57.4447 54.52 57.7948 54.9918 57.755C55.4627 57.7153 55.8127 57.3008 55.773 56.8299L55.7011 55.9767C55.6216 55.0339 56.3208 54.206 57.2636 54.1265L58.9699 53.9826L58.9664 53.9409C59.3946 54.3731 59.8684 54.724 60.3749 54.9734C60.1223 55.4115 59.9931 55.9276 60.0389 56.4702C60.1581 57.8839 61.4005 58.9331 62.8142 58.8139C64.2279 58.6947 65.2771 57.4523 65.1579 56.0386C65.1122 55.4959 64.8984 55.0087 64.5751 54.6193C65.0336 54.2885 65.4419 53.8632 65.7918 53.3654L65.7953 53.4071L67.5016 53.2632C68.4435 53.1838 69.2723 53.8829 69.3518 54.8257L69.4238 55.6789C69.4635 56.1498 69.8771 56.4999 70.3489 56.4601C70.8198 56.4204 71.1698 56.0059 71.1301 55.535L71.0582 54.6818C70.8993 52.7972 69.2424 51.398 67.3577 51.5569L66.6667 51.6152C66.8517 51.0677 66.98 50.4803 67.0458 49.8647L69.7734 49.6347C70.2443 49.595 70.5943 49.1806 70.5546 48.7096C70.5149 48.2387 70.1005 47.8887 69.6295 47.9284L67.07 48.1442C67.0202 47.5538 66.9099 46.9891 66.7581 46.452L66.9261 46.4379C68.8108 46.2789 70.21 44.6221 70.0511 42.7374Z" fill="white" fill-opacity="0.42"/>
</g>
<defs>
<filter id="filter0_b_224_3257" x="-5.07422" y="-7.78134" width="132.889" height="132.15" filterUnits="userSpaceOnUse" color-interpolation-filters="sRGB">
<feFlood flood-opacity="0" result="BackgroundImageFix"/>
<feGaussianBlur in="BackgroundImageFix" stdDeviation="12"/>
<feComposite in2="SourceAlpha" operator="in" result="effect1_backgroundBlur_224_3257"/>
<feBlend mode="normal" in="SourceGraphic" in2="effect1_backgroundBlur_224_3257" result="shape"/>
</filter>
<clipPath id="clip0_224_3257">
<rect width="50.9263" height="50.9263" fill="white" transform="translate(34.4473 37.1854) rotate(-4.81963)"/>
</clipPath>
</defs>
</svg>
