<svg width="48" height="48" viewBox="0 0 48 48" fill="none" xmlns="http://www.w3.org/2000/svg">
<path d="M0 20C0 8.95431 8.9543 0 20 0H43C45.7614 0 48 2.23858 48 5V28C48 39.0457 39.0457 48 28 48H5C2.23858 48 0 45.7614 0 43V20Z" fill="#D24848"/>
<path d="M30.75 23.25C30.3333 19.0528 27.4219 16.5 24 16.5C20.7656 16.5 18.6825 18.7594 18 21C15.1875 21.2812 12.75 23.0433 12.75 26.25C12.75 29.3438 15.2812 31.5 18.375 31.5H30.5625C33.1406 31.5 35.25 30.2138 35.25 27.375C35.25 24.5709 32.7656 23.355 30.75 23.25Z" stroke="white" stroke-width="2" stroke-linejoin="round"/>
<path d="M26.8594 21.75L21.8062 27.75L19.6406 25.35" stroke="white" stroke-width="2" stroke-linecap="round" stroke-linejoin="round"/>
</svg>
