<svg width="48" height="48" viewBox="0 0 48 48" fill="none" xmlns="http://www.w3.org/2000/svg">
<path d="M0 20C0 8.95431 8.9543 0 20 0H43C45.7614 0 48 2.23858 48 5V28C48 39.0457 39.0457 48 28 48H5C2.23858 48 0 45.7614 0 43V20Z" fill="#CF9641"/>
<path d="M21 15H31.5C32.3285 15 33 15.6716 33 16.5V25.5C33 26.3284 32.3285 27 31.5 27H24V28.5H27V30H24V31.5H29.25C29.6642 31.5 30 31.1642 30 30.75C30 30.3358 29.6642 30 29.25 30H28.5V28.5H31.5C33.1569 28.5 34.5 27.1569 34.5 25.5V16.5C34.5 14.8431 33.1569 13.5 31.5 13.5H21C19.3431 13.5 18 14.8431 18 16.5V19.5H19.5V16.5C19.5 15.6716 20.1716 15 21 15ZM17.25 30C16.8358 30 16.5 30.3358 16.5 30.75C16.5 31.1642 16.8358 31.5 17.25 31.5H18.75C19.1642 31.5 19.5 31.1642 19.5 30.75C19.5 30.3358 19.1642 30 18.75 30H17.25Z" fill="white"/>
<path d="M15.75 21C14.5074 21 13.5 22.0074 13.5 23.25V32.25C13.5 33.4926 14.5074 34.5 15.75 34.5H20.25C21.4926 34.5 22.5 33.4926 22.5 32.25V23.25C22.5 22.0074 21.4926 21 20.25 21H15.75ZM15.75 22.5H20.25C20.6642 22.5 21 22.8358 21 23.25V32.25C21 32.6642 20.6642 33 20.25 33H15.75C15.3358 33 15 32.6642 15 32.25V23.25C15 22.8358 15.3358 22.5 15.75 22.5Z" fill="white"/>
</svg>
