<svg width="48" height="48" viewBox="0 0 48 48" fill="none" xmlns="http://www.w3.org/2000/svg">
<path d="M0 20C0 8.95431 8.9543 0 20 0H43C45.7614 0 48 2.23858 48 5V28C48 39.0457 39.0457 48 28 48H5C2.23858 48 0 45.7614 0 43V20Z" fill="#A647E0"/>
<path d="M15 26V22C15 18.229 15 16.343 16.172 15.172C17.343 14 19.229 14 23 14H25C28.771 14 30.657 14 31.828 15.172C32.482 15.825 32.771 16.7 32.898 18M33 22V26C33 29.771 33 31.657 31.828 32.828C30.657 34 28.771 34 25 34H23C19.229 34 17.343 34 16.172 32.828C15.518 32.175 15.229 31.3 15.102 30M20 26H25M20 22H21M28 22H24" stroke="white" stroke-width="2" stroke-linecap="round"/>
</svg>
