<svg width="48" height="48" viewBox="0 0 48 48" fill="none" xmlns="http://www.w3.org/2000/svg">
<path d="M0 20C0 8.95431 8.9543 0 20 0H43C45.7614 0 48 2.23858 48 5V28C48 39.0457 39.0457 48 28 48H5C2.23858 48 0 45.7614 0 43V20Z" fill="#5C8BE8"/>
<path d="M19.6667 16.4925C21.4877 15.4415 23.6286 15.0884 25.6906 15.4988C27.7526 15.9092 29.5952 17.0552 30.8749 18.7234C32.1547 20.3915 32.7845 22.4679 32.6469 24.5659C32.5093 26.6639 31.6137 28.6403 30.127 30.127C28.6404 31.6137 26.6639 32.5092 24.566 32.6468C22.468 32.7844 20.3915 32.1547 18.7234 30.8749C17.0553 29.5951 15.9093 27.7526 15.4988 25.6905C15.0884 23.6285 15.4416 21.4876 16.4925 19.6666" stroke="white" stroke-width="1.5" stroke-linecap="round"/>
<path d="M25.9825 27.1698C20.1022 30.3039 14.4472 31.424 13.3508 29.6723C12.7745 28.7493 13.5794 27.2131 15.3333 25.5058M30.3364 17.7058C32.515 17.3049 34.1173 17.4783 34.6481 18.3265C35.5126 19.7078 33.2831 22.4616 29.4167 25.1006" stroke="white" stroke-width="1.5" stroke-linecap="round" stroke-linejoin="round"/>
</svg>
