<svg width="57" height="14" viewBox="0 0 57 14" fill="none" xmlns="http://www.w3.org/2000/svg">
<g clip-path="url(#clip0_325_23155)">
<mask id="mask0_325_23155" style="mask-type:luminance" maskUnits="userSpaceOnUse" x="0" y="0" width="57" height="14">
<path d="M57 0H0V14H57V0Z" fill="white"/>
</mask>
<g mask="url(#mask0_325_23155)">
<path d="M23.0763 2.8208V1.32941H19.1879H18.2464H17.6338V11.2097H19.1879V7.1119H22.7095V5.62051H19.1879V2.8208H23.0763Z" fill="white"/>
<path d="M37.985 6.91308V11.2093H39.4523V6.51749C39.4523 5.42807 38.9241 3.42206 36.6864 3.42206C34.9379 3.42206 34.2653 4.55116 34.2653 4.55116L34.1547 3.56416H32.853V11.2093H34.3399V7.31504C34.3399 5.61242 35.1836 4.80976 36.3196 4.80976C37.6695 4.80976 37.985 5.95676 37.985 6.91308Z" fill="white"/>
<path d="M54.0029 10.5515L56.9998 3.55029H55.4702L53.2901 8.9065L50.9666 3.55029H49.355L52.5099 10.6347C52.4414 10.8062 52.0206 11.833 51.7112 12.1632C51.441 12.4436 51.0678 12.5553 50.6215 12.5553L50.8382 13.8799C51.1648 13.8907 51.4902 13.8314 51.7941 13.7054C52.0979 13.5795 52.3739 13.3896 52.6051 13.1477C53.2938 12.418 53.8612 10.8818 53.8612 10.8818L53.983 10.5989H54.0238L54.0029 10.5515Z" fill="white"/>
<path d="M27.9245 3.43707H27.5296C26.5625 3.43707 25.6351 3.83926 24.9513 4.55517C24.2674 5.27108 23.8833 6.24206 23.8833 7.25454V7.54512C23.8836 8.55732 24.2679 9.52802 24.9517 10.2436C25.6355 10.9593 26.5627 11.3613 27.5296 11.3613H27.9245C28.8914 11.3613 29.8186 10.9593 30.5024 10.2436C31.1862 9.52802 31.5705 8.55732 31.5708 7.54512V7.25454C31.5708 6.24206 31.1866 5.27108 30.5028 4.55517C29.819 3.83926 28.8916 3.43707 27.9245 3.43707ZM30.0925 7.49517C30.0925 8.14029 29.8477 8.75892 29.412 9.2151C28.9763 9.67122 28.3854 9.92753 27.7692 9.92753H27.6934C27.0773 9.92753 26.4863 9.67122 26.0507 9.2151C25.615 8.75892 25.3702 8.14029 25.3702 7.49517V7.30314C25.3702 6.65808 25.615 6.03939 26.0507 5.58326C26.4863 5.12711 27.0773 4.87085 27.6934 4.87085H27.7619C28.378 4.87085 28.969 5.12711 29.4047 5.58326C29.8404 6.03939 30.0852 6.65808 30.0852 7.30314L30.0925 7.49517Z" fill="white"/>
<path d="M46.8646 0.838623V4.27075C46.2198 3.7306 45.4185 3.43665 44.5927 3.43735H44.3738C43.4069 3.4377 42.4796 3.84 41.7958 4.55584C41.1121 5.27167 40.7279 6.24248 40.7275 7.25479V7.54543C40.7279 8.55763 41.1122 9.52828 41.796 10.2439C42.4797 10.9596 43.407 11.3615 44.3738 11.3615H44.5927C45.5104 11.363 46.3945 11.0008 47.0676 10.3477L47.1881 11.1939H48.3613V0.838623H46.8646ZM46.9379 7.49548C46.9379 8.14054 46.6932 8.75923 46.2575 9.21541C45.8218 9.67153 45.2309 9.92778 44.6147 9.92778H44.5389C43.9227 9.92778 43.3318 9.67153 42.8961 9.21541C42.4604 8.75923 42.2157 8.14054 42.2157 7.49548V7.30345C42.2157 6.65839 42.4604 6.0397 42.8961 5.58355C43.3318 5.1274 43.9227 4.87114 44.5389 4.87114H44.6147C45.2309 4.87114 45.8218 5.1274 46.2575 5.58355C46.6932 6.0397 46.9379 6.65839 46.9379 7.30345V7.49548Z" fill="white"/>
<path d="M8.06136 10.9218V9.29596C8.06126 9.20619 8.03861 9.11799 7.99573 9.04026C7.9528 8.96248 7.89109 8.89797 7.81679 8.85305L6.47179 8.04016C6.39743 7.99519 6.31308 7.97156 6.22722 7.97156C6.14135 7.97156 6.057 7.99519 5.98264 8.04016L4.63762 8.85305C4.56334 8.89797 4.50164 8.96248 4.45872 9.04026C4.4158 9.11799 4.39316 9.20619 4.39307 9.29596V10.9218C4.39294 11.0118 4.41548 11.1003 4.45842 11.1782C4.50135 11.2562 4.56316 11.321 4.63762 11.366L5.98264 12.1789C6.057 12.2239 6.14135 12.2475 6.22722 12.2475C6.31308 12.2475 6.39743 12.2239 6.47179 12.1789L7.81679 11.366C7.89125 11.321 7.95306 11.2562 7.996 11.1782C8.03893 11.1003 8.06147 11.0118 8.06136 10.9218Z" fill="white"/>
<path d="M12.4539 10.9218V9.29596C12.4538 9.20619 12.4312 9.11799 12.3883 9.04026C12.3454 8.96248 12.2837 8.89797 12.2094 8.85305L10.8644 8.04016C10.79 7.99519 10.7057 7.97156 10.6198 7.97156C10.5339 7.97156 10.4496 7.99519 10.3752 8.04016L9.03022 8.85305C8.95591 8.89797 8.89421 8.96248 8.85133 9.04026C8.80839 9.11799 8.78575 9.20619 8.78564 9.29596V10.9218C8.78554 11.0118 8.80808 11.1003 8.85101 11.1782C8.89394 11.2562 8.95576 11.321 9.03022 11.366L10.3752 12.1789C10.4496 12.2239 10.5339 12.2475 10.6198 12.2475C10.7057 12.2475 10.79 12.2239 10.8644 12.1789L12.2094 11.366C12.2838 11.321 12.3456 11.2562 12.3886 11.1782C12.4315 11.1003 12.454 11.0118 12.4539 10.9218Z" fill="white"/>
<path d="M5.86947 6.93642V5.3106C5.86983 5.22036 5.8474 5.13164 5.80441 5.0534C5.76148 4.97517 5.69957 4.91021 5.62494 4.86509L4.27987 4.05475C4.20551 4.00981 4.12117 3.98615 4.03531 3.98615C3.94946 3.98615 3.86512 4.00981 3.79076 4.05475L2.44572 4.86509C2.37145 4.90999 2.30975 4.97456 2.26683 5.0523C2.2239 5.13004 2.20126 5.21823 2.20117 5.30803V6.93384C2.20105 7.02383 2.22359 7.11231 2.26652 7.19032C2.30945 7.26827 2.37127 7.33306 2.44572 7.37809L3.79076 8.1935C3.86512 8.23847 3.94946 8.2621 4.03531 8.2621C4.12117 8.2621 4.20551 8.23847 4.27987 8.1935L5.62494 7.38061C5.69941 7.33564 5.76122 7.27085 5.80415 7.19284C5.84709 7.11489 5.86962 7.02641 5.86947 6.93642Z" fill="white"/>
<path d="M10.2581 6.93642V5.3106C10.2581 5.22079 10.2354 5.1326 10.1925 5.05486C10.1496 4.97712 10.0879 4.91255 10.0136 4.86766L8.66857 4.05475C8.59421 4.00981 8.50986 3.98615 8.42399 3.98615C8.33818 3.98615 8.25383 4.00981 8.17946 4.05475L6.83442 4.86509C6.76011 4.90999 6.69846 4.97456 6.65552 5.0523C6.61259 5.13004 6.58995 5.21823 6.58984 5.30803V6.93384C6.58974 7.02383 6.61228 7.11231 6.65521 7.19032C6.69814 7.26827 6.75996 7.33306 6.83442 7.37809L8.17946 8.19098C8.25383 8.2359 8.33818 8.25958 8.42399 8.25958C8.50986 8.25958 8.59421 8.2359 8.66857 8.19098L10.0136 7.37809C10.0877 7.33329 10.1493 7.26889 10.1922 7.19144C10.2351 7.11394 10.2578 7.02596 10.2581 6.93642Z" fill="white"/>
<path d="M3.66828 10.9218V9.29596C3.6682 9.20619 3.64556 9.11799 3.60263 9.04026C3.55971 8.96248 3.49801 8.89797 3.42373 8.85305L2.0787 8.04016C2.00434 7.99519 1.92 7.97156 1.83415 7.97156C1.74829 7.97156 1.66395 7.99519 1.58959 8.04016L0.244553 8.85305C0.170273 8.89797 0.108577 8.96248 0.0656535 9.04026C0.0227299 9.11799 8.85074e-05 9.20619 5.31462e-07 9.29596V10.9218C-0.000126197 11.0118 0.0224134 11.1003 0.0653476 11.1782C0.108282 11.2562 0.170094 11.321 0.244553 11.366L1.58959 12.1789C1.66395 12.2239 1.74829 12.2475 1.83415 12.2475C1.92 12.2475 2.00434 12.2239 2.0787 12.1789L3.42373 11.366C3.49819 11.321 3.56001 11.2562 3.60294 11.1782C3.64587 11.1003 3.66841 11.0118 3.66828 10.9218Z" fill="white"/>
<path d="M8.06136 2.95104V1.32524C8.06126 1.23544 8.03861 1.14725 7.99573 1.06951C7.9528 0.991761 7.89109 0.927199 7.81679 0.882304L6.47179 0.0693975C6.39743 0.0244541 6.31308 0.000793457 6.22722 0.000793457C6.14135 0.000793457 6.057 0.0244541 5.98264 0.0693975L4.63762 0.882304C4.56334 0.927199 4.50164 0.991761 4.45872 1.06951C4.4158 1.14725 4.39316 1.23544 4.39307 1.32524V2.95104C4.39294 3.04106 4.41548 3.12952 4.45842 3.20751C4.50135 3.28549 4.56316 3.35026 4.63762 3.39526L5.98264 4.20817C6.057 4.25311 6.14135 4.27677 6.22722 4.27677C6.31308 4.27677 6.39743 4.25311 6.47179 4.20817L7.81679 3.39526C7.89125 3.35026 7.95306 3.28549 7.996 3.20751C8.03893 3.12952 8.06147 3.04106 8.06136 2.95104Z" fill="white"/>
</g>
</g>
<defs>
<clipPath id="clip0_325_23155">
<rect width="57" height="14" fill="white"/>
</clipPath>
</defs>
</svg>
